<svg xmlns="http://www.w3.org/2000/svg" xmlns:xlink="http://www.w3.org/1999/xlink" xmlns:lucid="lucid" width="1760" height="1360"><g transform="translate(0 0)" lucid:page-tab-id="0_0"><path d="M0 0h1760v1360H0z" fill="#fff"/><path d="M360 225c0-2.76 2.24-5 5-5h230c2.76 0 5 2.24 5 5v290c0 2.76-2.24 5-5 5H365c-2.76 0-5-2.24-5-5z" stroke="#000" stroke-width="2" fill="#fff"/><path d="M360 258h240M360 476h240" stroke="#000" stroke-width="2" fill="none"/><use xlink:href="#a" transform="matrix(1,0,0,1,368,220) translate(81.55 22.6)"/><use xlink:href="#b" transform="matrix(1,0,0,1,372,265.6) translate(0 29.500000000000007)"/><use xlink:href="#c" transform="matrix(1,0,0,1,372,265.6) translate(15.5 29.500000000000007)"/><use xlink:href="#b" transform="matrix(1,0,0,1,372,265.6) translate(0 51.10000000000001)"/><use xlink:href="#d" transform="matrix(1,0,0,1,372,265.6) translate(15.5 51.10000000000001)"/><use xlink:href="#b" transform="matrix(1,0,0,1,372,265.6) translate(0 72.70000000000002)"/><use xlink:href="#e" transform="matrix(1,0,0,1,372,265.6) translate(15.5 72.70000000000002)"/><use xlink:href="#b" transform="matrix(1,0,0,1,372,265.6) translate(0 94.30000000000003)"/><use xlink:href="#f" transform="matrix(1,0,0,1,372,265.6) translate(15.5 94.30000000000003)"/><use xlink:href="#b" transform="matrix(1,0,0,1,372,265.6) translate(0 115.90000000000002)"/><use xlink:href="#g" transform="matrix(1,0,0,1,372,265.6) translate(15.5 115.90000000000002)"/><use xlink:href="#h" transform="matrix(1,0,0,1,372,265.6) translate(98.35000000000001 115.90000000000002)"/><use xlink:href="#b" transform="matrix(1,0,0,1,372,265.6) translate(0 137.5)"/><use xlink:href="#i" transform="matrix(1,0,0,1,372,265.6) translate(15.5 137.5)"/><use xlink:href="#h" transform="matrix(1,0,0,1,372,265.6) translate(59.45 137.5)"/><use xlink:href="#b" transform="matrix(1,0,0,1,372,265.6) translate(0 159.1)"/><use xlink:href="#j" transform="matrix(1,0,0,1,372,265.6) translate(15.5 159.1)"/><use xlink:href="#h" transform="matrix(1,0,0,1,372,265.6) translate(84.5 159.1)"/><use xlink:href="#b" transform="matrix(1,0,0,1,372,265.6) translate(0 180.70000000000002)"/><use xlink:href="#k" transform="matrix(1,0,0,1,372,265.6) translate(15.5 180.70000000000002)"/><use xlink:href="#l" transform="matrix(1,0,0,1,372,265.6) translate(49.5 180.70000000000002)"/><path d="M40 85c0-2.76 2.24-5 5-5h210c2.76 0 5 2.24 5 5v210c0 2.76-2.24 5-5 5H45c-2.76 0-5-2.24-5-5z" stroke="#000" stroke-width="2" fill="#fff"/><path d="M40 118h220M40 251h220" stroke="#000" stroke-width="2" fill="none"/><use xlink:href="#m" transform="matrix(1,0,0,1,48,80) translate(77.075 22.6)"/><use xlink:href="#b" transform="matrix(1,0,0,1,52,125.6) translate(0 30.19999999999999)"/><use xlink:href="#n" transform="matrix(1,0,0,1,52,125.6) translate(15.5 30.19999999999999)"/><use xlink:href="#b" transform="matrix(1,0,0,1,52,125.6) translate(0 51.79999999999999)"/><use xlink:href="#o" transform="matrix(1,0,0,1,52,125.6) translate(15.5 51.79999999999999)"/><use xlink:href="#p" transform="matrix(1,0,0,1,52,125.6) translate(64.4 51.79999999999999)"/><use xlink:href="#b" transform="matrix(1,0,0,1,52,125.6) translate(0 73.39999999999999)"/><use xlink:href="#q" transform="matrix(1,0,0,1,52,125.6) translate(15.5 73.39999999999999)"/><use xlink:href="#r" transform="matrix(1,0,0,1,52,125.6) translate(82.45 73.39999999999999)"/><use xlink:href="#b" transform="matrix(1,0,0,1,52,125.6) translate(0 95)"/><use xlink:href="#s" transform="matrix(1,0,0,1,52,125.6) translate(15.5 95)"/><use xlink:href="#t" transform="matrix(1,0,0,1,52,125.6) translate(94.45 95)"/><path d="M327.6 370H155c-2.76 0-5-2.24-5-5v-64" stroke="#000" stroke-width="2" fill="none"/><path d="M357.6 370l-14.86 14.85L327.6 370l15.14-14.85z"/><path d="M359 370l-16.26 16.26L326.16 370l16.58-16.26zm-30 0l13.73 13.44L356.17 370l-13.44-13.44zM151 301h-2v-1h2z"/><use xlink:href="#u" transform="matrix(1,0,0,1,140.6516829103185,374) translate(0 14.4)"/><use xlink:href="#v" transform="matrix(1,0,0,1,158,300.20000000000005) translate(0 14.4)"/><use xlink:href="#w" transform="matrix(1,0,0,1,299.38114245999617,374) translate(0 14.4)"/><path d="M414.72 785V653.03c0-.02 0-.03-.03-.03-.02 0-.03 0-.03-.03V539.24" stroke="#000" stroke-width="2" fill="none"/><path d="M415.72 786h-2v-1h2zM419.3 538.5h-9.27l4.64-14.26z"/><path d="M420.68 539.5h-12.03l6.02-18.5zm-9.27-2h6.53l-3.26-10.03z"/><use xlink:href="#v" transform="matrix(1,0,0,1,422.7207655502392,764.2) translate(0 14.4)"/><use xlink:href="#v" transform="matrix(1,0,0,1,379.66666666666663,520.2) translate(0 14.4)"/><use xlink:href="#x" transform="matrix(1,0,0,1,359.66666666666663,592.6327407892259) translate(0 14.4)"/><path d="M632.27 897H561v-2h71.27zm188.5-6H740.7v-2h80.04zM561 897h-1v-2h1zM835.76 890l-14.26 4.64v-9.28z"/><path d="M839 890l-18.5 6v-12zm-16.5 3.26l10.03-3.26-10.03-3.26z"/><use xlink:href="#y" transform="matrix(1,0,0,1,560.5,900.0000000000001) translate(0 14.4)"/><use xlink:href="#z" transform="matrix(1,0,0,1,812.4999999999999,864.4) translate(0 14.4)"/><use xlink:href="#A" transform="matrix(1,0,0,1,632.2734709480122,885.2) translate(0 14.4)"/><use xlink:href="#B" transform="matrix(1,0,0,1,632.2734709480122,885.2) translate(17.95 14.4)"/><use xlink:href="#C" transform="matrix(1,0,0,1,632.2734709480122,885.2) translate(88.80000000000001 14.4)"/><path d="M1240 885c0-2.76 2.24-5 5-5h230c2.76 0 5 2.24 5 5v110c0 2.76-2.24 5-5 5h-230c-2.76 0-5-2.24-5-5z" stroke="#000" stroke-width="2" fill="#fff"/><path d="M1240 918h240m-240 41h240" stroke="#000" stroke-width="2" fill="none"/><use xlink:href="#D" transform="matrix(1,0,0,1,1248,880) translate(80.55 22.6)"/><path d="M529 754.84l.82 2.5 2 1.46 1.26.2H838.1l3.42 1.1 2.12 2.92.3 1.9v36.2h-2V765.1l-.2-1.26-1.46-2-2.5-.82H532.93l-1.9-.3-2.9-2.13-1.12-3.4V521h2zM529 521h-2v-1h2zM842.95 816.13l-4.64-14.27h9.28z"/><path d="M842.95 819.36l-6.02-18.5h12.03zm-3.26-16.5l3.25 10.03 3.25-10.04z"/><use xlink:href="#z" transform="matrix(1,0,0,1,493,520.2) translate(0 14.4)"/><use xlink:href="#z" transform="matrix(1,0,0,1,850.946008225448,797.5625273033252) translate(0 14.4)"/><use xlink:href="#A" transform="matrix(1,0,0,1,536,734.3190780522939) translate(0 14.4)"/><use xlink:href="#E" transform="matrix(1,0,0,1,536,734.3190780522939) translate(17.95 14.4)"/><use xlink:href="#F" transform="matrix(1,0,0,1,536,734.3190780522939) translate(77.9 14.4)"/><path d="M656.5 958.63H561v-2h95.5zm164.57-.65h-1.27l-.13.32-.8.33H715.45v-2H818.2l.13-.32.8-.32h1.94zM561 958.63h-1v-2h1zM836.07 956.98l-14.27 4.63v-9.26z"/><path d="M839.3 956.98l-18.5 6v-12.02zm-16.5 3.26l10.03-3.26-10.03-3.26z"/><use xlink:href="#G" transform="matrix(1,0,0,1,656.5028071611794,946.8312056737589) translate(0 14.4)"/><use xlink:href="#z" transform="matrix(1,0,0,1,560.7993654732006,961.6312056737589) translate(0 14.4)"/><use xlink:href="#z" transform="matrix(1,0,0,1,812.805844,931.376347) translate(0 14.4)"/><path d="M579.24 835.93h131.54c.12 0 .22.1.22.22s.1.22.22.22H839" stroke="#000" stroke-width="2" fill="none"/><path d="M578.5 840.56l-14.26-4.63 14.26-4.64z"/><path d="M579.5 841.94l-18.5-6 18.5-6.02zm-12.03-6l10.03 3.25v-6.53zM840 837.37h-1v-2h1z"/><use xlink:href="#H" transform="matrix(1,0,0,1,656.4383904936478,810.3290780141845) translate(0 14.4)"/><use xlink:href="#z" transform="matrix(1,0,0,1,560.5,839.9290780141845) translate(0 14.4)"/><use xlink:href="#y" transform="matrix(1,0,0,1,812.5000000000002,810.7681592039801) translate(0 14.4)"/><path d="M646.98 179.3l2.9 2.13 1.12 3.4v110.1l.2 1.25 1.46 2 2.5.82h774.6l1.88.3 2.9 2.13 1.13 3.4V879h-2V305.16l-.82-2.5-2-1.46-1.26-.2H654.83l-3.4-1.1-2.13-2.92-.3-1.9V185.16l-.82-2.5-2-1.46-1.26-.2H478.5l-2.5.82-1.46 2-.2 1.26v15.68h-2v-15.84l.3-1.9 2.12-2.9 3.4-1.12H645.1zM1435.67 880h-2v-1h2z"/><path d="M473.33 215.76l-4.63-14.26h9.27z"/><path d="M473.33 219l-6-18.5h12.02zm-3.26-16.5l3.26 10.03 3.26-10.03z"/><use xlink:href="#I" transform="matrix(1,0,0,1,1099.7792427367312,304) translate(0 14.4)"/><use xlink:href="#J" transform="matrix(1,0,0,1,1099.7792427367312,304) translate(64.9 14.4)"/><use xlink:href="#K" transform="matrix(1,0,0,1,1099.7792427367312,304) translate(104.9 14.4)"/><use xlink:href="#y" transform="matrix(1,0,0,1,1442.6666666666667,858.2) translate(0 14.4)"/><use xlink:href="#y" transform="matrix(1,0,0,1,481.3333333333333,198.20000000000084) translate(0 14.4)"/><path d="M1500 1025c0-2.76 2.24-5 5-5h230c2.76 0 5 2.24 5 5v110c0 2.76-2.24 5-5 5h-230c-2.76 0-5-2.24-5-5z" stroke="#000" stroke-width="2" fill="#fff"/><path d="M1500 1058h240m-240 41h240" stroke="#000" stroke-width="2" fill="none"/><use xlink:href="#L" transform="matrix(1,0,0,1,1508,1020) translate(34.075 22.6)"/><use xlink:href="#M" transform="matrix(1,0,0,1,1508,1020) translate(116.075 22.6)"/><use xlink:href="#N" transform="matrix(1,0,0,1,1508,1020) translate(156.025 22.6)"/><path d="M1500 1165c0-2.76 2.24-5 5-5h230c2.76 0 5 2.24 5 5v110c0 2.76-2.24 5-5 5h-230c-2.76 0-5-2.24-5-5z" stroke="#000" stroke-width="2" fill="#fff"/><path d="M1500 1198h240m-240 41h240" stroke="#000" stroke-width="2" fill="none"/><use xlink:href="#L" transform="matrix(1,0,0,1,1508,1160) translate(31.599999999999994 22.6)"/><use xlink:href="#O" transform="matrix(1,0,0,1,1508,1160) translate(113.6 22.6)"/><use xlink:href="#P" transform="matrix(1,0,0,1,1508,1160) translate(144.55 22.6)"/><path d="M1597.33 1019v-33.33c0-2.76-2.24-5-5-5h-87.37" stroke="#000" stroke-width="2" fill="none"/><path d="M1598.33 1020h-2v-1h2z"/><path d="M1504.48 993.4l-21.52-12.73 21.52-12.73z" fill="#fff"/><path d="M1505.48 995.15L1481 980.67l24.48-14.48zm-20.55-14.48l18.55 10.97V969.7z"/><path d="M1499 1183.33h-42c-2.76 0-5-2.24-5-5v-153.37" stroke="#000" stroke-width="2" fill="none"/><path d="M1500 1184.33h-1v-2h1z"/><path d="M1464.73 1024.48h-25.46l12.73-21.52z" fill="#fff"/><path d="M1466.48 1025.48h-28.96L1452 1001zm-25.45-2h21.94l-10.97-18.55z"/><path d="M1240 1165c0-2.76 2.24-5 5-5h190c2.76 0 5 2.24 5 5v110c0 2.76-2.24 5-5 5h-190c-2.76 0-5-2.24-5-5z" stroke="#000" stroke-width="2" fill="#fff"/><path d="M1240 1198h200m-200 41h200" stroke="#000" stroke-width="2" fill="none"/><use xlink:href="#L" transform="matrix(1,0,0,1,1248,1160) translate(1.0499999999999972 22.6)"/><use xlink:href="#O" transform="matrix(1,0,0,1,1248,1160) translate(83.05 22.6)"/><use xlink:href="#Q" transform="matrix(1,0,0,1,1248,1160) translate(114 22.6)"/><path d="M960 1165c0-2.76 2.24-5 5-5h230c2.76 0 5 2.24 5 5v110c0 2.76-2.24 5-5 5H965c-2.76 0-5-2.24-5-5z" stroke="#000" stroke-width="2" fill="#fff"/><path d="M960 1198h240m-240 41h240" stroke="#000" stroke-width="2" fill="none"/><use xlink:href="#L" transform="matrix(1,0,0,1,968,1160) translate(35.55 22.6)"/><use xlink:href="#O" transform="matrix(1,0,0,1,968,1160) translate(117.55 22.6)"/><use xlink:href="#R" transform="matrix(1,0,0,1,968,1160) translate(148.5 22.6)"/><path d="M1360 1159v-134.04" stroke="#000" stroke-width="2" fill="none"/><path d="M1361 1160h-2v-1h2z"/><path d="M1372.73 1024.48h-25.46l12.73-21.52z" fill="#fff"/><path d="M1374.48 1025.48h-28.96L1360 1001zm-25.45-2h21.94l-10.97-18.55z"/><path d="M1174.67 1159v-24c0-2.76 2.24-5 5-5h116.66c2.76 0 5-2.24 5-5v-100.04" stroke="#000" stroke-width="2" fill="none"/><path d="M1175.67 1160h-2v-1h2z"/><path d="M1314.06 1024.48h-25.45l12.73-21.52z" fill="#fff"/><path d="M1315.8 1025.48h-28.95l14.48-24.48zm-25.44-2h21.95l-10.97-18.55z"/><path d="M740 1165c0-2.76 2.24-5 5-5h170c2.76 0 5 2.24 5 5v110c0 2.76-2.24 5-5 5H745c-2.76 0-5-2.24-5-5z" stroke="#000" stroke-width="2" fill="#fff"/><path d="M740 1198h180m-180 41h180" stroke="#000" stroke-width="2" fill="none"/><use xlink:href="#L" transform="matrix(1,0,0,1,748,1160) translate(8.049999999999997 22.6)"/><use xlink:href="#O" transform="matrix(1,0,0,1,748,1160) translate(90.05 22.6)"/><use xlink:href="#S" transform="matrix(1,0,0,1,748,1160) translate(121 22.6)"/><path d="M909.33 1159v-44c0-2.76 2.24-5 5-5h339.34c2.76 0 5-2.24 5-5v-80.04" stroke="#000" stroke-width="2" fill="none"/><path d="M910.33 1160h-2v-1h2z"/><path d="M1271.4 1024.48h-25.46l12.73-21.52z" fill="#fff"/><path d="M1273.15 1025.48h-28.96l14.47-24.48zm-25.46-2h21.94l-10.97-18.55z"/><path d="M1550 299.24V935c0 2.76-2.24 5-5 5h-64" stroke="#000" stroke-width="2" fill="none"/><path d="M1554.64 298.5h-9.28l4.64-14.26z"/><path d="M1556 299.5h-12l6-18.5zm-9.26-2h6.52l-3.26-10.03zM1481 941h-1v-2h1z"/><use xlink:href="#T" transform="matrix(1,0,0,1,1558,565.8660392163374) translate(0 14.4)"/><use xlink:href="#U" transform="matrix(1,0,0,1,1558,565.8660392163374) translate(37.95 14.4)"/><use xlink:href="#V" transform="matrix(1,0,0,1,1558,565.8660392163374) translate(57.95 14.4)"/><use xlink:href="#W" transform="matrix(1,0,0,1,1558,565.8660392163374) translate(161.85000000000002 14.4)"/><use xlink:href="#z" transform="matrix(1,0,0,1,1514.9999999999998,280.2) translate(0 14.4)"/><use xlink:href="#z" transform="matrix(1,0,0,1,1480.5000000000002,944.0000000000001) translate(0 14.4)"/><path d="M1061 932.5h84c2.76 0 5-2.25 5-5v-1.83c0-2.76 2.24-5 5-5h65.76" stroke="#000" stroke-width="2" fill="none"/><path d="M1061 933.5h-1v-2h1zM1235.76 920.67l-14.26 4.63v-9.27z"/><path d="M1239 920.67l-18.5 6v-12.02zm-16.5 3.26l10.03-3.26-10.03-3.26z"/><use xlink:href="#X" transform="matrix(1,0,0,1,1103.885408898548,936.4875621890548) translate(0 14.4)"/><use xlink:href="#Y" transform="matrix(1,0,0,1,1103.885408898548,936.4875621890548) translate(34 14.4)"/><use xlink:href="#v" transform="matrix(1,0,0,1,1060.5,936.4875621890548) translate(0 14.4)"/><use xlink:href="#Z" transform="matrix(1,0,0,1,1212.5,895.0666666666667) translate(0 14.4)"/><path d="M1220.76 991h-16.68l-1.26.2-2 1.46-.82 2.5v46.92l-.3 1.9-2.13 2.9-3.4 1.12H389l-1.9-.3-2.9-2.13-1.12-3.4V1007h2v34.84l.82 2.5 2 1.46 1.26.2h804.66l2.5-.82 1.46-2 .2-1.26v-47.08l1.1-3.4 2.92-2.13 1.9-.3h16.84z"/><path d="M385.1 1007h-2v-1h2zM1235.76 990l-14.26 4.64v-9.28z"/><path d="M1239 990l-18.5 6v-12zm-16.5 3.26l10.03-3.26-10.03-3.26z"/><use xlink:href="#y" transform="matrix(1,0,0,1,349.10105263157897,1025.6266020234887) translate(0 14.4)"/><use xlink:href="#z" transform="matrix(1,0,0,1,1212.5000000000005,964.4) translate(0 14.4)"/><use xlink:href="#aa" transform="matrix(1,0,0,1,754.0987889091409,1051) translate(0 14.4)"/><use xlink:href="#ab" transform="matrix(1,0,0,1,754.0987889091409,1051) translate(34 14.4)"/><path d="M160 855c0-2.76 2.24-5 5-5h110c2.76 0 5 2.24 5 5v50c0 2.76-2.24 5-5 5H165c-2.76 0-5-2.24-5-5z" stroke="#000" stroke-width="2" fill="#fff"/><use xlink:href="#ac" transform="matrix(1,0,0,1,168,858) translate(14.924999999999997 25.6)"/><path d="M281 880h24c2.76 0 5 2.24 5 5v8.48c0 1.4 1.13 2.52 2.52 2.52h2.52" stroke="#000" stroke-width="2" fill="none"/><path d="M281 881h-1v-2h1z"/><path d="M337.04 896l-21.52 12.73v-25.46z" fill="#fff"/><path d="M339 896l-24.48 14.48v-28.96zm-22.48 10.97L335.07 896l-18.55-10.97z"/><path d="M20 765c0-2.76 2.24-5 5-5h110c2.76 0 5 2.24 5 5v50c0 2.76-2.24 5-5 5H25c-2.76 0-5-2.24-5-5z" stroke="#000" stroke-width="2" fill="#fff"/><use xlink:href="#ad" transform="matrix(1,0,0,1,28,768) translate(5.024999999999999 25.6)"/><path d="M130 685c0-2.76 2.24-5 5-5h170c2.76 0 5 2.24 5 5v50c0 2.76-2.24 5-5 5H135c-2.76 0-5-2.24-5-5z" stroke="#000" stroke-width="2" fill="#fff"/><use xlink:href="#ae" transform="matrix(1,0,0,1,138,688) translate(20.69999999999999 25.6)"/><path d="M176 1005c0-2.76 2.24-5 5-5h138c2.76 0 5 2.24 5 5v30c0 2.76-2.24 5-5 5H181c-2.76 0-5-2.24-5-5z" stroke="#000" stroke-width="2" fill="#fff"/><use xlink:href="#af" transform="matrix(1,0,0,1,184,1008) translate(26.075000000000003 15.6)"/><path d="M20 935c0-2.76 2.24-5 5-5h110c2.76 0 5 2.24 5 5v50c0 2.76-2.24 5-5 5H25c-2.76 0-5-2.24-5-5z" stroke="#000" stroke-width="2" fill="#fff"/><use xlink:href="#ag" transform="matrix(1,0,0,1,28,938) translate(22.075 25.6)"/><path d="M141 960h48.67c2.76 0 5-2.24 5-5v-20.04" stroke="#000" stroke-width="2" fill="none"/><path d="M141 961h-1v-2h1z"/><path d="M207.4 934.48h-25.46l12.73-21.52z" fill="#fff"/><path d="M209.15 935.48H180.2L194.66 911zm-25.46-2h21.94l-10.97-18.55z"/><path d="M250 999v-64.04" stroke="#000" stroke-width="2" fill="none"/><path d="M251 1000h-2v-1h2z"/><path d="M262.73 934.48h-25.46L250 912.96z" fill="#fff"/><path d="M264.48 935.48h-28.96L250 911zm-25.45-2h21.94L250 914.93z"/><path d="M141 790h27.33c2.76 0 5 2.24 5 5v30.04" stroke="#000" stroke-width="2" fill="none"/><path d="M141 791h-1v-2h1z"/><path d="M173.33 847.04l-12.72-21.52h25.46z" fill="#fff"/><path d="M173.33 849l-14.48-24.48h28.96zm-10.97-22.48l10.97 18.55 10.98-18.55z"/><path d="M220 741v84.04" stroke="#000" stroke-width="2" fill="none"/><path d="M221 741h-2v-1h2z"/><path d="M220 847.04l-12.73-21.52h25.46z" fill="#fff"/><path d="M220 849l-14.48-24.48h28.96zm-10.97-22.48L220 845.07l10.97-18.55z"/><path d="M340 791c0-2.76 2.24-5 5-5h210c2.76 0 5 2.24 5 5v210c0 2.76-2.24 5-5 5H345c-2.76 0-5-2.24-5-5z" stroke="#000" stroke-width="2" fill="#fff"/><path d="M340 824h220M340 957h220" stroke="#000" stroke-width="2" fill="none"/><use xlink:href="#ah" transform="matrix(1,0,0,1,348,786) translate(83.05 22.6)"/><use xlink:href="#ai" transform="matrix(1,0,0,1,352,831.6) translate(0 30.19999999999999)"/><use xlink:href="#aj" transform="matrix(1,0,0,1,352,831.6) translate(15.5 30.19999999999999)"/><use xlink:href="#ai" transform="matrix(1,0,0,1,352,831.6) translate(0 51.79999999999999)"/><use xlink:href="#ak" transform="matrix(1,0,0,1,352,831.6) translate(15.5 51.79999999999999)"/><use xlink:href="#al" transform="matrix(1,0,0,1,352,831.6) translate(68.35000000000001 51.79999999999999)"/><use xlink:href="#ai" transform="matrix(1,0,0,1,352,831.6) translate(0 73.39999999999999)"/><use xlink:href="#am" transform="matrix(1,0,0,1,352,831.6) translate(15.5 73.39999999999999)"/><use xlink:href="#an" transform="matrix(1,0,0,1,352,831.6) translate(0 95)"/><use xlink:href="#ao" transform="matrix(1,0,0,1,352,831.6) translate(98.4 95)"/><path d="M840 825c0-2.76 2.24-5 5-5h210c2.76 0 5 2.24 5 5v130c0 2.76-2.24 5-5 5H845c-2.76 0-5-2.24-5-5z" stroke="#000" stroke-width="2" fill="#fff"/><path d="M840 858h220m-220 62h220" stroke="#000" stroke-width="2" fill="none"/><use xlink:href="#ap" transform="matrix(1,0,0,1,848,820) translate(77.025 22.6)"/><use xlink:href="#ai" transform="matrix(1,0,0,1,852,865.6) translate(0 16.299999999999997)"/><use xlink:href="#aj" transform="matrix(1,0,0,1,852,865.6) translate(15.5 16.299999999999997)"/><use xlink:href="#ai" transform="matrix(1,0,0,1,852,865.6) translate(0 37.9)"/><use xlink:href="#aq" transform="matrix(1,0,0,1,852,865.6) translate(15.5 37.9)"/><path d="M920 585c0-2.76 2.24-5 5-5h110c2.76 0 5 2.24 5 5v50c0 2.76-2.24 5-5 5H925c-2.76 0-5-2.24-5-5z" stroke="#000" stroke-width="2" fill="#fff"/><use xlink:href="#ar" transform="matrix(1,0,0,1,928,588) translate(22.9 25.6)"/><path d="M982.67 819V659.24" stroke="#000" stroke-width="2" fill="none"/><path d="M983.67 820h-2v-1h2zM987.3 658.5h-9.27l4.64-14.26z"/><path d="M988.68 659.5h-12.03l6.02-18.5zm-9.27-2h6.53l-3.26-10.03z"/><use xlink:href="#as" transform="matrix(1,0,0,1,990.6666666666666,758.0723534241533) translate(0 14.4)"/><use xlink:href="#z" transform="matrix(1,0,0,1,990.6666666666667,798.2) translate(0 14.4)"/><use xlink:href="#y" transform="matrix(1,0,0,1,947.6666666666667,640.2) translate(0 14.4)"/><path d="M1260 395c0-2.76 2.24-5 5-5h130c2.76 0 5 2.24 5 5v50c0 2.76-2.24 5-5 5h-130c-2.76 0-5-2.24-5-5z" stroke="#000" stroke-width="2" fill="#fff"/><use xlink:href="#at" transform="matrix(1,0,0,1,1268,398) translate(19.049999999999997 25.6)"/><path d="M680 585c0-2.76 2.24-5 5-5h130c2.76 0 5 2.24 5 5v50c0 2.76-2.24 5-5 5H685c-2.76 0-5-2.24-5-5z" stroke="#000" stroke-width="2" fill="#fff"/><use xlink:href="#au" transform="matrix(1,0,0,1,688,588) translate(11.124999999999993 25.6)"/><use xlink:href="#av" transform="matrix(1,0,0,1,688,588) translate(54.025 25.6)"/><path d="M821 617h45.5c1.93 0 3.5-1.57 3.5-3.5s1.57-3.5 3.5-3.5h27.26" stroke="#000" stroke-width="2" fill="none"/><path d="M821 618h-1v-2h1zM915.76 610l-14.26 4.64v-9.28z"/><path d="M919 610l-18.5 6v-12zm-16.5 3.26l10.03-3.26-10.03-3.26z"/><use xlink:href="#aw" transform="matrix(1,0,0,1,822.8488170021287,585.544446078037) translate(0 14.4)"/><use xlink:href="#ax" transform="matrix(1,0,0,1,820.0000000000001,621) translate(0 14.4)"/><use xlink:href="#ay" transform="matrix(1,0,0,1,909,584.4000000000001) translate(0 14.4)"/><path d="M660 345c0-2.76 2.24-5 5-5h170c2.76 0 5 2.24 5 5v150c0 2.76-2.24 5-5 5H665c-2.76 0-5-2.24-5-5z" stroke="#000" stroke-width="2" fill="#fff"/><path d="M660 378h180m-180 74h180" stroke="#000" stroke-width="2" fill="none"/><use xlink:href="#az" transform="matrix(1,0,0,1,668,340) translate(25.124999999999993 22.6)"/><use xlink:href="#av" transform="matrix(1,0,0,1,668,340) translate(80.025 22.6)"/><use xlink:href="#ai" transform="matrix(1,0,0,1,672,385.6) translate(0 22.299999999999997)"/><use xlink:href="#aA" transform="matrix(1,0,0,1,672,385.6) translate(15.5 22.299999999999997)"/><use xlink:href="#ai" transform="matrix(1,0,0,1,672,385.6) translate(0 43.9)"/><use xlink:href="#aB" transform="matrix(1,0,0,1,672,385.6) translate(15.5 43.9)"/><path d="M751 547.6h-2v-6.33h2zm0-27.93h-2V501h2zM751 501h-2v-1h2zM764.85 562.74L750 577.6l-14.85-14.86L750 547.6z"/><path d="M766.26 562.74L750 579l-16.26-16.26L750 546.16zm-29.7 0L750 576.16l13.44-13.44L750 549z"/><use xlink:href="#aC" transform="matrix(1,0,0,1,716.525,519.6666666666667) translate(0 14.4)"/><use xlink:href="#z" transform="matrix(1,0,0,1,715,500.19999999999993) translate(0 14.4)"/><use xlink:href="#ay" transform="matrix(1,0,0,1,732,544.3832061068703) translate(0 14.4)"/><path d="M916 800.76V735c0-2.76-2.24-5-5-5H755c-2.76 0-5-2.24-5-5v-84" stroke="#000" stroke-width="2" fill="none"/><path d="M916 815.76l-4.64-14.26h9.28z"/><path d="M916 819l-6-18.5h12zm-3.26-16.5l3.26 10.03 3.26-10.03zM751 641h-2v-1h2z"/><use xlink:href="#aD" transform="matrix(1,0,0,1,788.7321102406814,704.4000000000001) translate(0 14.4)"/><use xlink:href="#aE" transform="matrix(1,0,0,1,788.7321102406814,704.4000000000001) translate(51.9 14.4)"/><use xlink:href="#ax" transform="matrix(1,0,0,1,758,640.2) translate(0 14.4)"/><use xlink:href="#ay" transform="matrix(1,0,0,1,898.0000000000001,797.5466678376359) translate(0 14.4)"/><path d="M1100 585c0-2.76 2.24-5 5-5h130c2.76 0 5 2.24 5 5v50c0 2.76-2.24 5-5 5h-130c-2.76 0-5-2.24-5-5z" stroke="#000" stroke-width="2" fill="#fff"/><use xlink:href="#aF" transform="matrix(1,0,0,1,1108,588) translate(44.525 25.6)"/><path d="M1036.97 640.7V676c0 2.76 2.24 5 5 5h74.36c2.76 0 5-2.24 5-5v-16.76" stroke="#000" stroke-width="2" fill="none"/><path d="M1037.97 640.7h-2v-.86l.6-.1 1.4-1zM1125.97 658.5h-9.27l4.63-14.26z"/><path d="M1127.35 659.5h-12.03l6-18.5zm-9.28-2h6.52l-3.27-10.03z"/><use xlink:href="#aG" transform="matrix(1,0,0,1,1030.0980068175588,685) translate(0 14.4)"/><use xlink:href="#F" transform="matrix(1,0,0,1,1030.0980068175588,685) translate(83.85000000000001 14.4)"/><use xlink:href="#z" transform="matrix(1,0,0,1,1001.9670199236893,640.8956603780952) translate(0 14.4)"/><use xlink:href="#ay" transform="matrix(1,0,0,1,1103.3333333333335,640.2) translate(0 14.4)"/><path d="M1061 834.98h59.83c2.76 0 5-2.24 5-5V755c0-2.76 2.24-5 5-5h74.84c2.76 0 5-2.24 5-5v-85.76" stroke="#000" stroke-width="2" fill="none"/><path d="M1061 835.98h-1v-2h1zM1215.3 658.5h-9.27l4.64-14.26z"/><path d="M1216.68 659.5h-12.03l6.02-18.5zm-9.27-2h6.53l-3.26-10.03z"/><g><use xlink:href="#aH" transform="matrix(1,0,0,1,1167.1148895659005,754) translate(0 14.4)"/><use xlink:href="#aI" transform="matrix(1,0,0,1,1167.1148895659005,754) translate(47.95 14.4)"/></g><g><use xlink:href="#z" transform="matrix(1,0,0,1,1060.5,838.9751243781095) translate(0 14.4)"/></g><g><use xlink:href="#ay" transform="matrix(1,0,0,1,1192.6666666666667,640.2) translate(0 14.4)"/></g><path d="M531.57 637.53l2.12 2.9.15.98h36.26v2h-37.95l-.35-2.17-1.46-2-2.42-.8-1.1.2-2 1.45-1.1 3.33h-41.35l-1.26.22-2 1.46-.8 2.5V785h-2V647.25l1.1-3.4 2.92-2.13 1.9-.3h40.05l.84-2.58 2.92-2.12 2.06-.33zm130.8-.04l-.3 1.9-2.12 2.9-3.4 1.1h-39.6v-2h39.28l2.5-.8 1.45-2 .2-1.27V518.06h2zM478.3 786h-2v-1h2zM666.02 517.33h-9.27l4.63-14.27z"/><path d="M667.4 518.33h-12.03l6-18.5zm-9.27-2h6.5l-3.25-10.03z"/><g><use xlink:href="#aJ" transform="matrix(1,0,0,1,570.1124103774185,631.6118323244984) translate(0 14.4)"/></g><g><use xlink:href="#z" transform="matrix(1,0,0,1,485.29148325358847,764.2) translate(0 14.4)"/></g><g><use xlink:href="#z" transform="matrix(1,0,0,1,626.3844818850589,489.0236646489969) translate(0 14.4)"/></g><path d="M1289 835.08l-.3 1.9-2.13 2.9-3.4 1.12h-112.92l-1.27.2-2 1.46-.8 2.5v39.92l-.32 1.9-2.12 2.9-3.4 1.12H1061v-2h99l2.5-.82 1.46-2 .2-1.26v-40.08l1.12-3.4 2.9-2.13 1.9-.3h112.76l2.5-.82 1.46-2 .2-1.26V604.65h2zm0-252.03h-2v-113.8h2zM1061 891h-1v-2h1zM1292.64 468.5h-9.28l4.64-14.26z"/><path d="M1294 469.5h-12l6-18.5zm-9.26-2h6.52l-3.26-10.03z"/><g><use xlink:href="#z" transform="matrix(1,0,0,1,1064.672578396555,894) translate(0 14.4)"/></g><g><use xlink:href="#z" transform="matrix(1,0,0,1,1253,450.1999999999999) translate(0 14.4)"/></g><g><use xlink:href="#aK" transform="matrix(1,0,0,1,1262.025,583.048896434635) translate(0 14.4)"/></g><path d="M1361 860.76h-2V806.9h2zm0-75.46h-2V451h2zM1361 451h-2v-1h2zM1360 875.76l-4.64-14.26h9.28z"/><path d="M1360 879l-6-18.5h12zm-3.26-16.5l3.26 10.03 3.26-10.03z"/><g><use xlink:href="#I" transform="matrix(1,0,0,1,1289.6,785.2990990990992) translate(0 14.4)"/><use xlink:href="#J" transform="matrix(1,0,0,1,1289.6,785.2990990990992) translate(64.9 14.4)"/><use xlink:href="#K" transform="matrix(1,0,0,1,1289.6,785.2990990990992) translate(104.9 14.4)"/></g><g><use xlink:href="#z" transform="matrix(1,0,0,1,1325,450.2) translate(0 14.4)"/></g><g><use xlink:href="#z" transform="matrix(1,0,0,1,1368,858.1999999999999) translate(0 14.4)"/></g><path d="M1480 225c0-2.76 2.24-5 5-5h130c2.76 0 5 2.24 5 5v50c0 2.76-2.24 5-5 5h-130c-2.76 0-5-2.24-5-5z" stroke="#000" stroke-width="2" fill="#fff"/><g><use xlink:href="#aL" transform="matrix(1,0,0,1,1488,228) translate(22.025 14.799999999999999)"/><use xlink:href="#aM" transform="matrix(1,0,0,1,1488,228) translate(35.05 36.4)"/></g><path d="M1260 105c0-2.76 2.24-5 5-5h130c2.76 0 5 2.24 5 5v50c0 2.76-2.24 5-5 5h-130c-2.76 0-5-2.24-5-5z" stroke="#000" stroke-width="2" fill="#fff"/><g><use xlink:href="#aN" transform="matrix(1,0,0,1,1268,108) translate(39.074999999999996 25.6)"/></g><path d="M1420 37c0-2.76 2.24-5 5-5h130c2.76 0 5 2.24 5 5v50c0 2.76-2.24 5-5 5h-130c-2.76 0-5-2.24-5-5z" stroke="#000" stroke-width="2" fill="#fff"/><g><use xlink:href="#aO" transform="matrix(1,0,0,1,1428,40) translate(37.4 14.799999999999999)"/><use xlink:href="#aP" transform="matrix(1,0,0,1,1428,40) translate(13.074999999999996 36.4)"/></g><path d="M1330 161v84c0 2.76 2.24 5 5 5h120.04" stroke="#000" stroke-width="2" fill="none"/><path d="M1331 161h-2v-1h2z"/><path d="M1477.04 250l-21.52 12.73v-25.46z" fill="#fff"/><path d="M1479 250l-24.48 14.48v-28.96zm-22.48 10.97l18.55-10.97-18.55-10.97z"/><path d="M1490 93v58c0 2.76 2.24 5 5 5h10.67c2.76 0 5 2.24 5 5v34.04" stroke="#000" stroke-width="2" fill="none"/><path d="M1491 93h-2v-1h2z"/><path d="M1510.67 217.04l-12.73-21.52h25.45z" fill="#fff"/><path d="M1510.67 219l-14.48-24.48h28.95zm-10.98-22.48l10.97 18.55 10.97-18.55z"/><path d="M1580 105c0-2.76 2.24-5 5-5h130c2.76 0 5 2.24 5 5v50c0 2.76-2.24 5-5 5h-130c-2.76 0-5-2.24-5-5z" stroke="#000" stroke-width="2" fill="#fff"/><g><use xlink:href="#aQ" transform="matrix(1,0,0,1,1588,108) translate(15.049999999999997 25.6)"/></g><path d="M1650 161v86.48c0 1.4-1.13 2.52-2.52 2.52h-2.52" stroke="#000" stroke-width="2" fill="none"/><path d="M1651 161h-2v-1h2z"/><path d="M1644.48 262.73L1622.96 250l21.52-12.73z" fill="#fff"/><path d="M1645.48 264.48L1621 250l24.48-14.48zM1624.93 250l18.55 10.97v-21.94zM751 556.76h-2v-15.5h2zm0-37.1h-2V501h2zM751 501h-2v-1h2zM750 571.76l-4.64-14.26h9.28z"/><path d="M750 575l-6-18.5h12zm-3.26-16.5l3.26 10.03 3.26-10.03z"/><path d="M980 395c0-2.76 2.24-5 5-5h110c2.76 0 5 2.24 5 5v50c0 2.76-2.24 5-5 5H985c-2.76 0-5-2.24-5-5z" stroke="#000" stroke-width="2" fill="#fff"/><g><use xlink:href="#az" transform="matrix(1,0,0,1,988,398) translate(9.449999999999996 25.6)"/><use xlink:href="#aR" transform="matrix(1,0,0,1,988,398) translate(64.35 25.6)"/></g><path d="M981 547.6h-2v-21.8h2zm60-43.4h-2V451h2zM1041 451h-2v-1h2zM994.85 562.74L980 577.6l-14.85-14.86L980 547.6z"/><path d="M996.26 562.74L980 579l-16.26-16.26L980 546.16zm-29.7 0L980 576.16l13.44-13.44L980 549z"/><g><use xlink:href="#aC" transform="matrix(1,0,0,1,976.525,504.2) translate(0 14.4)"/></g><g><use xlink:href="#z" transform="matrix(1,0,0,1,1005,450.2) translate(0 14.4)"/></g><g><use xlink:href="#ay" transform="matrix(1,0,0,1,962,521.4982128058028) translate(0 14.4)"/></g><path d="M841 420h119.76" stroke="#000" stroke-width="2" fill="none"/><path d="M841 421h-1v-2h1zM975.76 420l-14.26 4.64v-9.28z"/><path d="M979 420l-18.5 6v-12zm-16.5 3.26l10.03-3.26-10.03-3.26z"/><g><use xlink:href="#aw" transform="matrix(1,0,0,1,871.525,394.4) translate(0 14.4)"/></g><g><use xlink:href="#z" transform="matrix(1,0,0,1,840.5,423.99999999999994) translate(0 14.4)"/></g><g><use xlink:href="#ay" transform="matrix(1,0,0,1,969,394.4) translate(0 14.4)"/></g><defs><path d="M233-177c-1 41-23 64-60 70L243 0h-38l-65-103H63V0H30v-248c88 3 205-21 203 71zM63-129c60-2 137 13 137-47 0-61-80-42-137-45v92" id="aS"/><path d="M100-194c63 0 86 42 84 106H49c0 40 14 67 53 68 26 1 43-12 49-29l28 8c-11 28-37 45-77 45C44 4 14-33 15-96c1-61 26-98 85-98zm52 81c6-60-76-77-97-28-3 7-6 17-6 28h103" id="aT"/><path d="M96-169c-40 0-48 33-48 73s9 75 48 75c24 0 41-14 43-38l32 2c-6 37-31 61-74 61-59 0-76-41-82-99-10-93 101-131 147-64 4 7 5 14 7 22l-32 3c-4-21-16-35-41-35" id="aU"/><path d="M24-231v-30h32v30H24zM24 0v-190h32V0H24" id="aV"/><path d="M115-194c55 1 70 41 70 98S169 2 115 4C84 4 66-9 55-30l1 105H24l-1-265h31l2 30c10-21 28-34 59-34zm-8 174c40 0 45-34 45-75s-6-73-45-74c-42 0-51 32-51 76 0 43 10 73 51 73" id="aW"/><path d="M59-47c-2 24 18 29 38 22v24C64 9 27 4 27-40v-127H5v-23h24l9-43h21v43h35v23H59v120" id="aX"/><g id="a"><use transform="matrix(0.05,0,0,0.05,0,0)" xlink:href="#aS"/><use transform="matrix(0.05,0,0,0.05,12.950000000000001,0)" xlink:href="#aT"/><use transform="matrix(0.05,0,0,0.05,22.950000000000003,0)" xlink:href="#aU"/><use transform="matrix(0.05,0,0,0.05,31.950000000000003,0)" xlink:href="#aT"/><use transform="matrix(0.05,0,0,0.05,41.95,0)" xlink:href="#aV"/><use transform="matrix(0.05,0,0,0.05,45.900000000000006,0)" xlink:href="#aW"/><use transform="matrix(0.05,0,0,0.05,55.900000000000006,0)" xlink:href="#aX"/></g><path d="M118-107v75H92v-75H18v-26h74v-75h26v75h74v26h-74" id="aY"/><use transform="matrix(0.05,0,0,0.05,0,0)" xlink:href="#aY" id="b"/><path d="M85-194c31 0 48 13 60 33l-1-100h32l1 261h-30c-2-10 0-23-3-31C134-8 116 4 85 4 32 4 16-35 15-94c0-66 23-100 70-100zm9 24c-40 0-46 34-46 75 0 40 6 74 45 74 42 0 51-32 51-76 0-42-9-74-50-73" id="aZ"/><path d="M33-154v-36h34v36H33zM33 0v-36h34V0H33" id="ba"/><path d="M135-143c-3-34-86-38-87 0 15 53 115 12 119 90S17 21 10-45l28-5c4 36 97 45 98 0-10-56-113-15-118-90-4-57 82-63 122-42 12 7 21 19 24 35" id="bb"/><path d="M114-163C36-179 61-72 57 0H25l-1-190h30c1 12-1 29 2 39 6-27 23-49 58-41v29" id="bc"/><path d="M117-194c89-4 53 116 60 194h-32v-121c0-31-8-49-39-48C34-167 62-67 57 0H25l-1-190h30c1 10-1 24 2 32 11-22 29-35 61-36" id="bd"/><path d="M177-190C167-65 218 103 67 71c-23-6-38-20-44-43l32-5c15 47 100 32 89-28v-30C133-14 115 1 83 1 29 1 15-40 15-95c0-56 16-97 71-98 29-1 48 16 59 35 1-10 0-23 2-32h30zM94-22c36 0 50-32 50-73 0-42-14-75-50-75-39 0-46 34-46 75s6 73 46 73" id="be"/><g id="c"><use transform="matrix(0.05,0,0,0.05,0,0)" xlink:href="#aV"/><use transform="matrix(0.05,0,0,0.05,3.95,0)" xlink:href="#aZ"/><use transform="matrix(0.05,0,0,0.05,13.949999999999998,0)" xlink:href="#ba"/><use transform="matrix(0.05,0,0,0.05,18.95,0)" xlink:href="#bb"/><use transform="matrix(0.05,0,0,0.05,27.950000000000003,0)" xlink:href="#aX"/><use transform="matrix(0.05,0,0,0.05,32.95,0)" xlink:href="#bc"/><use transform="matrix(0.05,0,0,0.05,38.900000000000006,0)" xlink:href="#aV"/><use transform="matrix(0.05,0,0,0.05,42.85000000000001,0)" xlink:href="#bd"/><use transform="matrix(0.05,0,0,0.05,52.85,0)" xlink:href="#be"/></g><path d="M100-194c62-1 85 37 85 99 1 63-27 99-86 99S16-35 15-95c0-66 28-99 85-99zM99-20c44 1 53-31 53-75 0-43-8-75-51-75s-53 32-53 75 10 74 51 75" id="bf"/><path d="M141-36C126-15 110 5 73 4 37 3 15-17 15-53c-1-64 63-63 125-63 3-35-9-54-41-54-24 1-41 7-42 31l-33-3c5-37 33-52 76-52 45 0 72 20 72 64v82c-1 20 7 32 28 27v20c-31 9-61-2-59-35zM48-53c0 20 12 33 32 33 41-3 63-29 60-74-43 2-92-5-92 41" id="bg"/><path d="M210-169c-67 3-38 105-44 169h-31v-121c0-29-5-50-35-48C34-165 62-65 56 0H25l-1-190h30c1 10-1 24 2 32 10-44 99-50 107 0 11-21 27-35 58-36 85-2 47 119 55 194h-31v-121c0-29-5-49-35-48" id="bh"/><g id="d"><use transform="matrix(0.05,0,0,0.05,0,0)" xlink:href="#bb"/><use transform="matrix(0.05,0,0,0.05,9,0)" xlink:href="#aX"/><use transform="matrix(0.05,0,0,0.05,14,0)" xlink:href="#bf"/><use transform="matrix(0.05,0,0,0.05,24,0)" xlink:href="#bc"/><use transform="matrix(0.05,0,0,0.05,29.950000000000003,0)" xlink:href="#aT"/><use transform="matrix(0.05,0,0,0.05,39.95,0)" xlink:href="#bd"/><use transform="matrix(0.05,0,0,0.05,49.95,0)" xlink:href="#bg"/><use transform="matrix(0.05,0,0,0.05,59.95,0)" xlink:href="#bh"/><use transform="matrix(0.05,0,0,0.05,74.9,0)" xlink:href="#aT"/><use transform="matrix(0.05,0,0,0.05,84.9,0)" xlink:href="#ba"/><use transform="matrix(0.05,0,0,0.05,89.9,0)" xlink:href="#bb"/><use transform="matrix(0.05,0,0,0.05,98.9,0)" xlink:href="#aX"/><use transform="matrix(0.05,0,0,0.05,103.9,0)" xlink:href="#bc"/><use transform="matrix(0.05,0,0,0.05,109.85000000000001,0)" xlink:href="#aV"/><use transform="matrix(0.05,0,0,0.05,113.80000000000001,0)" xlink:href="#bd"/><use transform="matrix(0.05,0,0,0.05,123.80000000000001,0)" xlink:href="#be"/></g><g id="e"><use transform="matrix(0.05,0,0,0.05,0,0)" xlink:href="#aZ"/><use transform="matrix(0.05,0,0,0.05,10,0)" xlink:href="#bg"/><use transform="matrix(0.05,0,0,0.05,20,0)" xlink:href="#aX"/><use transform="matrix(0.05,0,0,0.05,25,0)" xlink:href="#aT"/><use transform="matrix(0.05,0,0,0.05,35,0)" xlink:href="#ba"/><use transform="matrix(0.05,0,0,0.05,40,0)" xlink:href="#aZ"/><use transform="matrix(0.05,0,0,0.05,50,0)" xlink:href="#bg"/><use transform="matrix(0.05,0,0,0.05,60,0)" xlink:href="#aX"/><use transform="matrix(0.05,0,0,0.05,65,0)" xlink:href="#aT"/></g><path d="M24 0v-261h32V0H24" id="bi"/><g id="f"><use transform="matrix(0.05,0,0,0.05,0,0)" xlink:href="#bi"/><use transform="matrix(0.05,0,0,0.05,3.95,0)" xlink:href="#bf"/><use transform="matrix(0.05,0,0,0.05,13.949999999999998,0)" xlink:href="#aU"/><use transform="matrix(0.05,0,0,0.05,22.95,0)" xlink:href="#bg"/><use transform="matrix(0.05,0,0,0.05,32.95,0)" xlink:href="#aX"/><use transform="matrix(0.05,0,0,0.05,37.95,0)" xlink:href="#aV"/><use transform="matrix(0.05,0,0,0.05,41.900000000000006,0)" xlink:href="#bf"/><use transform="matrix(0.05,0,0,0.05,51.900000000000006,0)" xlink:href="#bd"/><use transform="matrix(0.05,0,0,0.05,61.900000000000006,0)" xlink:href="#ba"/><use transform="matrix(0.05,0,0,0.05,66.9,0)" xlink:href="#bb"/><use transform="matrix(0.05,0,0,0.05,75.9,0)" xlink:href="#aX"/><use transform="matrix(0.05,0,0,0.05,80.9,0)" xlink:href="#bc"/><use transform="matrix(0.05,0,0,0.05,86.85000000000001,0)" xlink:href="#aV"/><use transform="matrix(0.05,0,0,0.05,90.80000000000001,0)" xlink:href="#bd"/><use transform="matrix(0.05,0,0,0.05,100.80000000000001,0)" xlink:href="#be"/></g><g id="g"><use transform="matrix(0.05,0,0,0.05,0,0)" xlink:href="#aW"/><use transform="matrix(0.05,0,0,0.05,10,0)" xlink:href="#bc"/><use transform="matrix(0.05,0,0,0.05,15.949999999999998,0)" xlink:href="#aV"/><use transform="matrix(0.05,0,0,0.05,19.9,0)" xlink:href="#aU"/><use transform="matrix(0.05,0,0,0.05,28.899999999999995,0)" xlink:href="#aT"/><use transform="matrix(0.05,0,0,0.05,38.9,0)" xlink:href="#aX"/><use transform="matrix(0.05,0,0,0.05,43.9,0)" xlink:href="#bf"/><use transform="matrix(0.05,0,0,0.05,53.900000000000006,0)" xlink:href="#aX"/><use transform="matrix(0.05,0,0,0.05,58.900000000000006,0)" xlink:href="#bg"/><use transform="matrix(0.05,0,0,0.05,68.9,0)" xlink:href="#bi"/><use transform="matrix(0.05,0,0,0.05,72.85000000000001,0)" xlink:href="#ba"/></g><path d="M84 4C-5 8 30-112 23-190h32v120c0 31 7 50 39 49 72-2 45-101 50-169h31l1 190h-30c-1-10 1-25-2-33-11 22-28 36-60 37" id="bj"/><path d="M115-194c53 0 69 39 70 98 0 66-23 100-70 100C84 3 66-7 56-30L54 0H23l1-261h32v101c10-23 28-34 59-34zm-8 174c40 0 45-34 45-75 0-40-5-75-45-74-42 0-51 32-51 76 0 43 10 73 51 73" id="bk"/><g id="h"><use transform="matrix(0.05,0,0,0.05,0,0)" xlink:href="#aZ"/><use transform="matrix(0.05,0,0,0.05,10,0)" xlink:href="#bf"/><use transform="matrix(0.05,0,0,0.05,20,0)" xlink:href="#bj"/><use transform="matrix(0.05,0,0,0.05,30,0)" xlink:href="#bk"/><use transform="matrix(0.05,0,0,0.05,40,0)" xlink:href="#bi"/><use transform="matrix(0.05,0,0,0.05,43.95,0)" xlink:href="#aT"/></g><g id="i"><use transform="matrix(0.05,0,0,0.05,0,0)" xlink:href="#aW"/><use transform="matrix(0.05,0,0,0.05,10,0)" xlink:href="#bg"/><use transform="matrix(0.05,0,0,0.05,20,0)" xlink:href="#aV"/><use transform="matrix(0.05,0,0,0.05,23.95,0)" xlink:href="#aZ"/><use transform="matrix(0.05,0,0,0.05,33.95,0)" xlink:href="#ba"/></g><path d="M106-169C34-169 62-67 57 0H25v-261h32l-1 103c12-21 28-36 61-36 89 0 53 116 60 194h-32v-121c2-32-8-49-39-48" id="bl"/><g id="j"><use transform="matrix(0.05,0,0,0.05,0,0)" xlink:href="#aU"/><use transform="matrix(0.05,0,0,0.05,9,0)" xlink:href="#bl"/><use transform="matrix(0.05,0,0,0.05,19,0)" xlink:href="#bg"/><use transform="matrix(0.05,0,0,0.05,29,0)" xlink:href="#bd"/><use transform="matrix(0.05,0,0,0.05,39,0)" xlink:href="#be"/><use transform="matrix(0.05,0,0,0.05,49,0)" xlink:href="#aT"/><use transform="matrix(0.05,0,0,0.05,59,0)" xlink:href="#ba"/></g><path d="M141 0L90-78 38 0H4l68-98-65-92h35l48 74 47-74h35l-64 92 68 98h-35" id="bm"/><g id="k"><use transform="matrix(0.05,0,0,0.05,0,0)" xlink:href="#aX"/><use transform="matrix(0.05,0,0,0.05,5,0)" xlink:href="#bg"/><use transform="matrix(0.05,0,0,0.05,15,0)" xlink:href="#bm"/><use transform="matrix(0.05,0,0,0.05,24,0)" xlink:href="#ba"/></g><g id="l"><use transform="matrix(0.05,0,0,0.05,0,0)" xlink:href="#aV"/><use transform="matrix(0.05,0,0,0.05,3.95,0)" xlink:href="#bd"/><use transform="matrix(0.05,0,0,0.05,13.949999999999998,0)" xlink:href="#aX"/></g><path d="M205 0l-28-72H64L36 0H1l101-248h38L239 0h-34zm-38-99l-47-123c-12 45-31 82-46 123h93" id="bn"/><g id="m"><use transform="matrix(0.05,0,0,0.05,0,0)" xlink:href="#bn"/><use transform="matrix(0.05,0,0,0.05,12,0)" xlink:href="#bc"/><use transform="matrix(0.05,0,0,0.05,17.95,0)" xlink:href="#aX"/><use transform="matrix(0.05,0,0,0.05,22.95,0)" xlink:href="#aV"/><use transform="matrix(0.05,0,0,0.05,26.899999999999995,0)" xlink:href="#aU"/><use transform="matrix(0.05,0,0,0.05,35.9,0)" xlink:href="#bi"/><use transform="matrix(0.05,0,0,0.05,39.85,0)" xlink:href="#aT"/></g><g id="n"><use transform="matrix(0.05,0,0,0.05,0,0)" xlink:href="#aZ"/><use transform="matrix(0.05,0,0,0.05,10,0)" xlink:href="#aT"/><use transform="matrix(0.05,0,0,0.05,20,0)" xlink:href="#bb"/><use transform="matrix(0.05,0,0,0.05,29,0)" xlink:href="#aU"/><use transform="matrix(0.05,0,0,0.05,38,0)" xlink:href="#bc"/><use transform="matrix(0.05,0,0,0.05,43.95,0)" xlink:href="#aV"/><use transform="matrix(0.05,0,0,0.05,47.900000000000006,0)" xlink:href="#aW"/><use transform="matrix(0.05,0,0,0.05,57.900000000000006,0)" xlink:href="#aX"/><use transform="matrix(0.05,0,0,0.05,62.900000000000006,0)" xlink:href="#aV"/><use transform="matrix(0.05,0,0,0.05,66.85000000000001,0)" xlink:href="#bf"/><use transform="matrix(0.05,0,0,0.05,76.85000000000001,0)" xlink:href="#bd"/><use transform="matrix(0.05,0,0,0.05,86.85000000000001,0)" xlink:href="#ba"/><use transform="matrix(0.05,0,0,0.05,91.85000000000001,0)" xlink:href="#bb"/><use transform="matrix(0.05,0,0,0.05,100.85000000000001,0)" xlink:href="#aX"/><use transform="matrix(0.05,0,0,0.05,105.85000000000001,0)" xlink:href="#bc"/><use transform="matrix(0.05,0,0,0.05,111.80000000000001,0)" xlink:href="#aV"/><use transform="matrix(0.05,0,0,0.05,115.75,0)" xlink:href="#bd"/><use transform="matrix(0.05,0,0,0.05,125.75,0)" xlink:href="#be"/></g><g id="o"><use transform="matrix(0.05,0,0,0.05,0,0)" xlink:href="#aW"/><use transform="matrix(0.05,0,0,0.05,10,0)" xlink:href="#bc"/><use transform="matrix(0.05,0,0,0.05,15.949999999999998,0)" xlink:href="#aV"/><use transform="matrix(0.05,0,0,0.05,19.9,0)" xlink:href="#aU"/><use transform="matrix(0.05,0,0,0.05,28.899999999999995,0)" xlink:href="#aT"/><use transform="matrix(0.05,0,0,0.05,38.9,0)" xlink:href="#ba"/></g><g id="p"><use transform="matrix(0.05,0,0,0.05,0,0)" xlink:href="#aZ"/><use transform="matrix(0.05,0,0,0.05,10,0)" xlink:href="#bf"/><use transform="matrix(0.05,0,0,0.05,20,0)" xlink:href="#bj"/><use transform="matrix(0.05,0,0,0.05,30,0)" xlink:href="#bk"/><use transform="matrix(0.05,0,0,0.05,40,0)" xlink:href="#bi"/><use transform="matrix(0.05,0,0,0.05,43.95,0)" xlink:href="#aT"/><use transform="matrix(0.05,0,0,0.05,53.95,0)" xlink:href="#aT"/></g><g id="q"><use transform="matrix(0.05,0,0,0.05,0,0)" xlink:href="#aX"/><use transform="matrix(0.05,0,0,0.05,5,0)" xlink:href="#bg"/><use transform="matrix(0.05,0,0,0.05,15,0)" xlink:href="#bm"/><use transform="matrix(0.05,0,0,0.05,24,0)" xlink:href="#bb"/><use transform="matrix(0.05,0,0,0.05,33,0)" xlink:href="#aV"/><use transform="matrix(0.05,0,0,0.05,36.95,0)" xlink:href="#be"/><use transform="matrix(0.05,0,0,0.05,46.95,0)" xlink:href="#bd"/><use transform="matrix(0.05,0,0,0.05,56.95,0)" xlink:href="#ba"/></g><g id="r"><use transform="matrix(0.05,0,0,0.05,0,0)" xlink:href="#bd"/><use transform="matrix(0.05,0,0,0.05,10,0)" xlink:href="#bj"/><use transform="matrix(0.05,0,0,0.05,20,0)" xlink:href="#bh"/></g><path d="M179-190L93 31C79 59 56 82 12 73V49c39 6 53-20 64-50L1-190h34L92-34l54-156h33" id="bo"/><g id="s"><use transform="matrix(0.05,0,0,0.05,0,0)" xlink:href="#aU"/><use transform="matrix(0.05,0,0,0.05,9,0)" xlink:href="#bg"/><use transform="matrix(0.05,0,0,0.05,19,0)" xlink:href="#aX"/><use transform="matrix(0.05,0,0,0.05,24,0)" xlink:href="#aT"/><use transform="matrix(0.05,0,0,0.05,34,0)" xlink:href="#be"/><use transform="matrix(0.05,0,0,0.05,44,0)" xlink:href="#bf"/><use transform="matrix(0.05,0,0,0.05,54,0)" xlink:href="#bc"/><use transform="matrix(0.05,0,0,0.05,59.95,0)" xlink:href="#bo"/><use transform="matrix(0.05,0,0,0.05,68.95,0)" xlink:href="#ba"/></g><g id="t"><use transform="matrix(0.05,0,0,0.05,0,0)" xlink:href="#bb"/><use transform="matrix(0.05,0,0,0.05,9,0)" xlink:href="#aX"/><use transform="matrix(0.05,0,0,0.05,14,0)" xlink:href="#bc"/><use transform="matrix(0.05,0,0,0.05,19.95,0)" xlink:href="#aV"/><use transform="matrix(0.05,0,0,0.05,23.9,0)" xlink:href="#bd"/><use transform="matrix(0.05,0,0,0.05,33.9,0)" xlink:href="#be"/></g><g id="u"><use transform="matrix(0.05,0,0,0.05,0,0)" xlink:href="#aU"/><use transform="matrix(0.05,0,0,0.05,9,0)" xlink:href="#bf"/><use transform="matrix(0.05,0,0,0.05,19,0)" xlink:href="#bd"/><use transform="matrix(0.05,0,0,0.05,29,0)" xlink:href="#aX"/><use transform="matrix(0.05,0,0,0.05,34,0)" xlink:href="#bg"/><use transform="matrix(0.05,0,0,0.05,44,0)" xlink:href="#aV"/><use transform="matrix(0.05,0,0,0.05,47.95,0)" xlink:href="#bd"/><use transform="matrix(0.05,0,0,0.05,57.95,0)" xlink:href="#bb"/></g><path d="M27 0v-27h64v-190l-56 39v-29l58-41h29v221h61V0H27" id="bp"/><path d="M33 0v-38h34V0H33" id="bq"/><path d="M80-196l47-18 7 23-49 13 32 44-20 13-27-46-27 45-21-12 33-44-49-13 8-23 47 19-2-53h23" id="br"/><g id="v"><use transform="matrix(0.05,0,0,0.05,0,0)" xlink:href="#bp"/><use transform="matrix(0.05,0,0,0.05,10,0)" xlink:href="#bq"/><use transform="matrix(0.05,0,0,0.05,15,0)" xlink:href="#bq"/><use transform="matrix(0.05,0,0,0.05,20,0)" xlink:href="#br"/></g><use transform="matrix(0.05,0,0,0.05,0,0)" xlink:href="#bp" id="w"/><g id="x"><use transform="matrix(0.05,0,0,0.05,0,0)" xlink:href="#bb"/><use transform="matrix(0.05,0,0,0.05,9,0)" xlink:href="#aU"/><use transform="matrix(0.05,0,0,0.05,18,0)" xlink:href="#bg"/><use transform="matrix(0.05,0,0,0.05,28,0)" xlink:href="#bd"/><use transform="matrix(0.05,0,0,0.05,38,0)" xlink:href="#bb"/></g><g id="y"><use transform="matrix(0.05,0,0,0.05,0,0)" xlink:href="#bp"/><use transform="matrix(0.05,0,0,0.05,10,0)" xlink:href="#bq"/><use transform="matrix(0.05,0,0,0.05,15,0)" xlink:href="#bq"/><use transform="matrix(0.05,0,0,0.05,20,0)" xlink:href="#br"/></g><path d="M101-251c68 0 85 55 85 127S166 4 100 4C33 4 14-52 14-124c0-73 17-127 87-127zm-1 229c47 0 54-49 54-102s-4-102-53-102c-51 0-55 48-55 102 0 53 5 102 54 102" id="bs"/><g id="z"><use transform="matrix(0.05,0,0,0.05,0,0)" xlink:href="#bs"/><use transform="matrix(0.05,0,0,0.05,10,0)" xlink:href="#bq"/><use transform="matrix(0.05,0,0,0.05,15,0)" xlink:href="#bq"/><use transform="matrix(0.05,0,0,0.05,20,0)" xlink:href="#br"/></g><g id="A"><use transform="matrix(0.05,0,0,0.05,0,0)" xlink:href="#aV"/><use transform="matrix(0.05,0,0,0.05,3.95,0)" xlink:href="#bb"/></g><path d="M240 0l2-218c-23 76-54 145-80 218h-23L58-218 59 0H30v-248h44l77 211c21-75 51-140 76-211h43V0h-30" id="bt"/><g id="B"><use transform="matrix(0.05,0,0,0.05,0,0)" xlink:href="#bt"/><use transform="matrix(0.05,0,0,0.05,14.950000000000001,0)" xlink:href="#aT"/><use transform="matrix(0.05,0,0,0.05,24.950000000000003,0)" xlink:href="#bh"/><use transform="matrix(0.05,0,0,0.05,39.900000000000006,0)" xlink:href="#bk"/><use transform="matrix(0.05,0,0,0.05,49.900000000000006,0)" xlink:href="#aT"/><use transform="matrix(0.05,0,0,0.05,59.900000000000006,0)" xlink:href="#bc"/></g><path d="M101-234c-31-9-42 10-38 44h38v23H63V0H32v-167H5v-23h27c-7-52 17-82 69-68v24" id="bu"/><g id="C"><use transform="matrix(0.05,0,0,0.05,0,0)" xlink:href="#bf"/><use transform="matrix(0.05,0,0,0.05,10,0)" xlink:href="#bu"/><use transform="matrix(0.05,0,0,0.05,14.65,0)" xlink:href="#bu"/></g><path d="M185-189c-5-48-123-54-124 2 14 75 158 14 163 119 3 78-121 87-175 55-17-10-28-26-33-46l33-7c5 56 141 63 141-1 0-78-155-14-162-118-5-82 145-84 179-34 5 7 8 16 11 25" id="bv"/><g id="D"><use transform="matrix(0.05,0,0,0.05,0,0)" xlink:href="#bv"/><use transform="matrix(0.05,0,0,0.05,12,0)" xlink:href="#aX"/><use transform="matrix(0.05,0,0,0.05,17,0)" xlink:href="#bg"/><use transform="matrix(0.05,0,0,0.05,27,0)" xlink:href="#aX"/><use transform="matrix(0.05,0,0,0.05,32,0)" xlink:href="#aV"/><use transform="matrix(0.05,0,0,0.05,35.95,0)" xlink:href="#bb"/><use transform="matrix(0.05,0,0,0.05,44.95,0)" xlink:href="#aX"/><use transform="matrix(0.05,0,0,0.05,49.95,0)" xlink:href="#aV"/><use transform="matrix(0.05,0,0,0.05,53.900000000000006,0)" xlink:href="#aU"/></g><g id="E"><use transform="matrix(0.05,0,0,0.05,0,0)" xlink:href="#bb"/><use transform="matrix(0.05,0,0,0.05,9,0)" xlink:href="#bl"/><use transform="matrix(0.05,0,0,0.05,19,0)" xlink:href="#bg"/><use transform="matrix(0.05,0,0,0.05,29,0)" xlink:href="#bc"/><use transform="matrix(0.05,0,0,0.05,34.95,0)" xlink:href="#aT"/><use transform="matrix(0.05,0,0,0.05,44.95,0)" xlink:href="#aZ"/></g><g id="F"><use transform="matrix(0.05,0,0,0.05,0,0)" xlink:href="#aV"/><use transform="matrix(0.05,0,0,0.05,3.95,0)" xlink:href="#bd"/></g><g id="G"><use transform="matrix(0.05,0,0,0.05,0,0)" xlink:href="#aU"/><use transform="matrix(0.05,0,0,0.05,9,0)" xlink:href="#bc"/><use transform="matrix(0.05,0,0,0.05,14.949999999999998,0)" xlink:href="#aT"/><use transform="matrix(0.05,0,0,0.05,24.95,0)" xlink:href="#bg"/><use transform="matrix(0.05,0,0,0.05,34.95,0)" xlink:href="#aX"/><use transform="matrix(0.05,0,0,0.05,39.95,0)" xlink:href="#aT"/><use transform="matrix(0.05,0,0,0.05,49.95,0)" xlink:href="#bb"/></g><path d="M108 0H70L1-190h34L89-25l56-165h34" id="bw"/><g id="H"><use transform="matrix(0.05,0,0,0.05,0,0)" xlink:href="#aV"/><use transform="matrix(0.05,0,0,0.05,3.95,0)" xlink:href="#bd"/><use transform="matrix(0.05,0,0,0.05,13.949999999999998,0)" xlink:href="#bw"/><use transform="matrix(0.05,0,0,0.05,22.95,0)" xlink:href="#aV"/><use transform="matrix(0.05,0,0,0.05,26.899999999999995,0)" xlink:href="#aX"/><use transform="matrix(0.05,0,0,0.05,31.899999999999995,0)" xlink:href="#aT"/><use transform="matrix(0.05,0,0,0.05,41.9,0)" xlink:href="#bb"/></g><g id="I"><use transform="matrix(0.05,0,0,0.05,0,0)" xlink:href="#aU"/><use transform="matrix(0.05,0,0,0.05,9,0)" xlink:href="#bf"/><use transform="matrix(0.05,0,0,0.05,19,0)" xlink:href="#bi"/><use transform="matrix(0.05,0,0,0.05,22.95,0)" xlink:href="#bi"/><use transform="matrix(0.05,0,0,0.05,26.899999999999995,0)" xlink:href="#aT"/><use transform="matrix(0.05,0,0,0.05,36.9,0)" xlink:href="#aU"/><use transform="matrix(0.05,0,0,0.05,45.9,0)" xlink:href="#aX"/><use transform="matrix(0.05,0,0,0.05,50.9,0)" xlink:href="#bb"/></g><g id="J"><use transform="matrix(0.05,0,0,0.05,0,0)" xlink:href="#aZ"/><use transform="matrix(0.05,0,0,0.05,10,0)" xlink:href="#bg"/><use transform="matrix(0.05,0,0,0.05,20,0)" xlink:href="#aX"/><use transform="matrix(0.05,0,0,0.05,25,0)" xlink:href="#bg"/></g><g id="K"><use transform="matrix(0.05,0,0,0.05,0,0)" xlink:href="#bu"/><use transform="matrix(0.05,0,0,0.05,5,0)" xlink:href="#bc"/><use transform="matrix(0.05,0,0,0.05,10.95,0)" xlink:href="#bf"/><use transform="matrix(0.05,0,0,0.05,20.95,0)" xlink:href="#bh"/></g><g id="L"><use transform="matrix(0.05,0,0,0.05,0,0)" xlink:href="#aT"/><use transform="matrix(0.05,0,0,0.05,10,0)" xlink:href="#bm"/><use transform="matrix(0.05,0,0,0.05,19,0)" xlink:href="#aW"/><use transform="matrix(0.05,0,0,0.05,29,0)" xlink:href="#aT"/><use transform="matrix(0.05,0,0,0.05,39,0)" xlink:href="#bd"/><use transform="matrix(0.05,0,0,0.05,49,0)" xlink:href="#bb"/><use transform="matrix(0.05,0,0,0.05,58,0)" xlink:href="#aT"/><use transform="matrix(0.05,0,0,0.05,68,0)" xlink:href="#bb"/></g><g id="M"><use transform="matrix(0.05,0,0,0.05,0,0)" xlink:href="#bf"/><use transform="matrix(0.05,0,0,0.05,10,0)" xlink:href="#bw"/><use transform="matrix(0.05,0,0,0.05,19,0)" xlink:href="#aT"/><use transform="matrix(0.05,0,0,0.05,29,0)" xlink:href="#bc"/></g><g id="N"><use transform="matrix(0.05,0,0,0.05,0,0)" xlink:href="#aX"/><use transform="matrix(0.05,0,0,0.05,5,0)" xlink:href="#aV"/><use transform="matrix(0.05,0,0,0.05,8.95,0)" xlink:href="#bh"/><use transform="matrix(0.05,0,0,0.05,23.9,0)" xlink:href="#aT"/></g><g id="O"><use transform="matrix(0.05,0,0,0.05,0,0)" xlink:href="#aW"/><use transform="matrix(0.05,0,0,0.05,10,0)" xlink:href="#aT"/><use transform="matrix(0.05,0,0,0.05,20,0)" xlink:href="#bc"/></g><g id="P"><use transform="matrix(0.05,0,0,0.05,0,0)" xlink:href="#bg"/><use transform="matrix(0.05,0,0,0.05,10,0)" xlink:href="#bc"/><use transform="matrix(0.05,0,0,0.05,15.949999999999998,0)" xlink:href="#aX"/><use transform="matrix(0.05,0,0,0.05,20.95,0)" xlink:href="#aV"/><use transform="matrix(0.05,0,0,0.05,24.9,0)" xlink:href="#aU"/><use transform="matrix(0.05,0,0,0.05,33.9,0)" xlink:href="#bi"/><use transform="matrix(0.05,0,0,0.05,37.85,0)" xlink:href="#aT"/></g><g id="Q"><use transform="matrix(0.05,0,0,0.05,0,0)" xlink:href="#aU"/><use transform="matrix(0.05,0,0,0.05,9,0)" xlink:href="#bg"/><use transform="matrix(0.05,0,0,0.05,19,0)" xlink:href="#aX"/><use transform="matrix(0.05,0,0,0.05,24,0)" xlink:href="#aT"/><use transform="matrix(0.05,0,0,0.05,34,0)" xlink:href="#be"/><use transform="matrix(0.05,0,0,0.05,44,0)" xlink:href="#bf"/><use transform="matrix(0.05,0,0,0.05,54,0)" xlink:href="#bc"/><use transform="matrix(0.05,0,0,0.05,59.95,0)" xlink:href="#bo"/></g><g id="R"><use transform="matrix(0.05,0,0,0.05,0,0)" xlink:href="#bb"/><use transform="matrix(0.05,0,0,0.05,9,0)" xlink:href="#aX"/><use transform="matrix(0.05,0,0,0.05,14,0)" xlink:href="#bf"/><use transform="matrix(0.05,0,0,0.05,24,0)" xlink:href="#bc"/><use transform="matrix(0.05,0,0,0.05,29.950000000000003,0)" xlink:href="#aT"/></g><g id="S"><use transform="matrix(0.05,0,0,0.05,0,0)" xlink:href="#bj"/><use transform="matrix(0.05,0,0,0.05,10,0)" xlink:href="#bb"/><use transform="matrix(0.05,0,0,0.05,19,0)" xlink:href="#aT"/><use transform="matrix(0.05,0,0,0.05,29,0)" xlink:href="#bc"/></g><g id="T"><use transform="matrix(0.05,0,0,0.05,0,0)" xlink:href="#bb"/><use transform="matrix(0.05,0,0,0.05,9,0)" xlink:href="#bf"/><use transform="matrix(0.05,0,0,0.05,19,0)" xlink:href="#bi"/><use transform="matrix(0.05,0,0,0.05,22.95,0)" xlink:href="#aZ"/></g><g id="U"><use transform="matrix(0.05,0,0,0.05,0,0)" xlink:href="#aX"/><use transform="matrix(0.05,0,0,0.05,5,0)" xlink:href="#bf"/></g><path d="M87 75C49 33 22-17 22-94c0-76 28-126 65-167h31c-38 41-64 92-64 168S80 34 118 75H87" id="bx"/><g id="V"><use transform="matrix(0.05,0,0,0.05,0,0)" xlink:href="#bx"/><use transform="matrix(0.05,0,0,0.05,5.95,0)" xlink:href="#bg"/><use transform="matrix(0.05,0,0,0.05,15.949999999999998,0)" xlink:href="#bd"/><use transform="matrix(0.05,0,0,0.05,25.950000000000003,0)" xlink:href="#bf"/><use transform="matrix(0.05,0,0,0.05,35.95,0)" xlink:href="#bd"/><use transform="matrix(0.05,0,0,0.05,45.95,0)" xlink:href="#bo"/><use transform="matrix(0.05,0,0,0.05,54.95,0)" xlink:href="#bh"/><use transform="matrix(0.05,0,0,0.05,69.9,0)" xlink:href="#bf"/><use transform="matrix(0.05,0,0,0.05,79.9,0)" xlink:href="#bj"/><use transform="matrix(0.05,0,0,0.05,89.9,0)" xlink:href="#bb"/></g><path d="M33-261c38 41 65 92 65 168S71 34 33 75H2C39 34 66-17 66-93S39-220 2-261h31" id="by"/><g id="W"><use transform="matrix(0.05,0,0,0.05,0,0)" xlink:href="#aZ"/><use transform="matrix(0.05,0,0,0.05,10,0)" xlink:href="#bg"/><use transform="matrix(0.05,0,0,0.05,20,0)" xlink:href="#aX"/><use transform="matrix(0.05,0,0,0.05,25,0)" xlink:href="#bg"/><use transform="matrix(0.05,0,0,0.05,35,0)" xlink:href="#by"/></g><g id="X"><use transform="matrix(0.05,0,0,0.05,0,0)" xlink:href="#aU"/><use transform="matrix(0.05,0,0,0.05,9,0)" xlink:href="#bg"/><use transform="matrix(0.05,0,0,0.05,19,0)" xlink:href="#bd"/></g><path d="M206 0h-36l-40-164L89 0H53L-1-190h32L70-26l43-164h34l41 164 42-164h31" id="bz"/><g id="Y"><use transform="matrix(0.05,0,0,0.05,0,0)" xlink:href="#bw"/><use transform="matrix(0.05,0,0,0.05,9,0)" xlink:href="#aV"/><use transform="matrix(0.05,0,0,0.05,12.949999999999998,0)" xlink:href="#aT"/><use transform="matrix(0.05,0,0,0.05,22.95,0)" xlink:href="#bz"/></g><g id="Z"><use transform="matrix(0.05,0,0,0.05,0,0)" xlink:href="#bs"/><use transform="matrix(0.05,0,0,0.05,10,0)" xlink:href="#bq"/><use transform="matrix(0.05,0,0,0.05,15,0)" xlink:href="#bq"/><use transform="matrix(0.05,0,0,0.05,20,0)" xlink:href="#br"/></g><g id="aa"><use transform="matrix(0.05,0,0,0.05,0,0)" xlink:href="#aU"/><use transform="matrix(0.05,0,0,0.05,9,0)" xlink:href="#bg"/><use transform="matrix(0.05,0,0,0.05,19,0)" xlink:href="#bd"/></g><g id="ab"><use transform="matrix(0.05,0,0,0.05,0,0)" xlink:href="#bw"/><use transform="matrix(0.05,0,0,0.05,9,0)" xlink:href="#aV"/><use transform="matrix(0.05,0,0,0.05,12.949999999999998,0)" xlink:href="#aT"/><use transform="matrix(0.05,0,0,0.05,22.95,0)" xlink:href="#bz"/></g><path d="M127-220V0H93v-220H8v-28h204v28h-85" id="bA"/><g id="ac"><use transform="matrix(0.05,0,0,0.05,0,0)" xlink:href="#bA"/><use transform="matrix(0.05,0,0,0.05,10.3,0)" xlink:href="#bc"/><use transform="matrix(0.05,0,0,0.05,16.25,0)" xlink:href="#bg"/><use transform="matrix(0.05,0,0,0.05,26.25,0)" xlink:href="#bw"/><use transform="matrix(0.05,0,0,0.05,35.25,0)" xlink:href="#aT"/><use transform="matrix(0.05,0,0,0.05,45.25,0)" xlink:href="#bi"/><use transform="matrix(0.05,0,0,0.05,49.2,0)" xlink:href="#aT"/><use transform="matrix(0.05,0,0,0.05,59.2,0)" xlink:href="#bc"/><use transform="matrix(0.05,0,0,0.05,65.15,0)" xlink:href="#bb"/></g><path d="M160-131c35 5 61 23 61 61C221 17 115-2 30 0v-248c76 3 177-17 177 60 0 33-19 50-47 57zm-97-11c50-1 110 9 110-42 0-47-63-36-110-37v79zm0 115c55-2 124 14 124-45 0-56-70-42-124-44v89" id="bB"/><path d="M143 0L79-87 56-68V0H24v-261h32v163l83-92h37l-77 82L181 0h-38" id="bC"/><g id="ad"><use transform="matrix(0.05,0,0,0.05,0,0)" xlink:href="#bB"/><use transform="matrix(0.05,0,0,0.05,12,0)" xlink:href="#bg"/><use transform="matrix(0.05,0,0,0.05,22,0)" xlink:href="#aU"/><use transform="matrix(0.05,0,0,0.05,31,0)" xlink:href="#bC"/><use transform="matrix(0.05,0,0,0.05,40,0)" xlink:href="#aW"/><use transform="matrix(0.05,0,0,0.05,50,0)" xlink:href="#bg"/><use transform="matrix(0.05,0,0,0.05,60,0)" xlink:href="#aU"/><use transform="matrix(0.05,0,0,0.05,69,0)" xlink:href="#bC"/><use transform="matrix(0.05,0,0,0.05,78,0)" xlink:href="#aT"/><use transform="matrix(0.05,0,0,0.05,88,0)" xlink:href="#bc"/></g><path d="M63-220v92h138v28H63V0H30v-248h175v28H63" id="bD"/><g id="ae"><use transform="matrix(0.05,0,0,0.05,0,0)" xlink:href="#bD"/><use transform="matrix(0.05,0,0,0.05,10.950000000000001,0)" xlink:href="#bg"/><use transform="matrix(0.05,0,0,0.05,20.950000000000003,0)" xlink:href="#bh"/><use transform="matrix(0.05,0,0,0.05,35.900000000000006,0)" xlink:href="#aV"/><use transform="matrix(0.05,0,0,0.05,39.85000000000001,0)" xlink:href="#bi"/><use transform="matrix(0.05,0,0,0.05,43.80000000000001,0)" xlink:href="#bi"/><use transform="matrix(0.05,0,0,0.05,47.750000000000014,0)" xlink:href="#bo"/><use transform="matrix(0.05,0,0,0.05,56.750000000000014,0)" xlink:href="#bh"/><use transform="matrix(0.05,0,0,0.05,71.70000000000002,0)" xlink:href="#aT"/><use transform="matrix(0.05,0,0,0.05,81.70000000000002,0)" xlink:href="#bh"/><use transform="matrix(0.05,0,0,0.05,96.65000000000002,0)" xlink:href="#bk"/><use transform="matrix(0.05,0,0,0.05,106.65000000000003,0)" xlink:href="#aT"/><use transform="matrix(0.05,0,0,0.05,116.65000000000003,0)" xlink:href="#bc"/></g><path d="M212-179c-10-28-35-45-73-45-59 0-87 40-87 99 0 60 29 101 89 101 43 0 62-24 78-52l27 14C228-24 195 4 139 4 59 4 22-46 18-125c-6-104 99-153 187-111 19 9 31 26 39 46" id="bE"/><g id="af"><use transform="matrix(0.05,0,0,0.05,0,0)" xlink:href="#bE"/><use transform="matrix(0.05,0,0,0.05,12.950000000000001,0)" xlink:href="#bf"/><use transform="matrix(0.05,0,0,0.05,22.950000000000003,0)" xlink:href="#bi"/><use transform="matrix(0.05,0,0,0.05,26.900000000000002,0)" xlink:href="#bi"/><use transform="matrix(0.05,0,0,0.05,30.85,0)" xlink:href="#aT"/><use transform="matrix(0.05,0,0,0.05,40.85,0)" xlink:href="#be"/><use transform="matrix(0.05,0,0,0.05,50.85,0)" xlink:href="#bj"/><use transform="matrix(0.05,0,0,0.05,60.85,0)" xlink:href="#aT"/><use transform="matrix(0.05,0,0,0.05,70.85,0)" xlink:href="#bb"/></g><g id="ag"><use transform="matrix(0.05,0,0,0.05,0,0)" xlink:href="#bD"/><use transform="matrix(0.05,0,0,0.05,10.950000000000001,0)" xlink:href="#bc"/><use transform="matrix(0.05,0,0,0.05,16.900000000000002,0)" xlink:href="#aV"/><use transform="matrix(0.05,0,0,0.05,20.85,0)" xlink:href="#aT"/><use transform="matrix(0.05,0,0,0.05,30.85,0)" xlink:href="#bd"/><use transform="matrix(0.05,0,0,0.05,40.85,0)" xlink:href="#aZ"/><use transform="matrix(0.05,0,0,0.05,50.85,0)" xlink:href="#bb"/></g><path d="M232-93c-1 65-40 97-104 97C67 4 28-28 28-90v-158h33c8 89-33 224 67 224 102 0 64-133 71-224h33v155" id="bF"/><g id="ah"><use transform="matrix(0.05,0,0,0.05,0,0)" xlink:href="#bF"/><use transform="matrix(0.05,0,0,0.05,12.950000000000001,0)" xlink:href="#bb"/><use transform="matrix(0.05,0,0,0.05,21.950000000000003,0)" xlink:href="#aT"/><use transform="matrix(0.05,0,0,0.05,31.950000000000003,0)" xlink:href="#bc"/></g><use transform="matrix(0.05,0,0,0.05,0,0)" xlink:href="#aY" id="ai"/><g id="aj"><use transform="matrix(0.05,0,0,0.05,0,0)" xlink:href="#bd"/><use transform="matrix(0.05,0,0,0.05,10,0)" xlink:href="#bg"/><use transform="matrix(0.05,0,0,0.05,20,0)" xlink:href="#bh"/><use transform="matrix(0.05,0,0,0.05,34.95,0)" xlink:href="#aT"/><use transform="matrix(0.05,0,0,0.05,44.95,0)" xlink:href="#ba"/><use transform="matrix(0.05,0,0,0.05,49.95,0)" xlink:href="#bb"/><use transform="matrix(0.05,0,0,0.05,58.95,0)" xlink:href="#aX"/><use transform="matrix(0.05,0,0,0.05,63.95,0)" xlink:href="#bc"/><use transform="matrix(0.05,0,0,0.05,69.9,0)" xlink:href="#aV"/><use transform="matrix(0.05,0,0,0.05,73.85000000000001,0)" xlink:href="#bd"/><use transform="matrix(0.05,0,0,0.05,83.85000000000001,0)" xlink:href="#be"/></g><g id="ak"><use transform="matrix(0.05,0,0,0.05,0,0)" xlink:href="#aT"/><use transform="matrix(0.05,0,0,0.05,10,0)" xlink:href="#bh"/><use transform="matrix(0.05,0,0,0.05,24.950000000000003,0)" xlink:href="#bg"/><use transform="matrix(0.05,0,0,0.05,34.95,0)" xlink:href="#aV"/><use transform="matrix(0.05,0,0,0.05,38.900000000000006,0)" xlink:href="#bi"/><use transform="matrix(0.05,0,0,0.05,42.85000000000001,0)" xlink:href="#ba"/></g><g id="al"><use transform="matrix(0.05,0,0,0.05,0,0)" xlink:href="#bb"/><use transform="matrix(0.05,0,0,0.05,9,0)" xlink:href="#aX"/><use transform="matrix(0.05,0,0,0.05,14,0)" xlink:href="#bc"/><use transform="matrix(0.05,0,0,0.05,19.95,0)" xlink:href="#aV"/><use transform="matrix(0.05,0,0,0.05,23.9,0)" xlink:href="#bd"/><use transform="matrix(0.05,0,0,0.05,33.9,0)" xlink:href="#be"/></g><g id="am"><use transform="matrix(0.05,0,0,0.05,0,0)" xlink:href="#aZ"/><use transform="matrix(0.05,0,0,0.05,10,0)" xlink:href="#bg"/><use transform="matrix(0.05,0,0,0.05,20,0)" xlink:href="#aX"/><use transform="matrix(0.05,0,0,0.05,25,0)" xlink:href="#aT"/><use transform="matrix(0.05,0,0,0.05,35,0)" xlink:href="#bf"/><use transform="matrix(0.05,0,0,0.05,45,0)" xlink:href="#bu"/><use transform="matrix(0.05,0,0,0.05,50,0)" xlink:href="#bk"/><use transform="matrix(0.05,0,0,0.05,60,0)" xlink:href="#aV"/><use transform="matrix(0.05,0,0,0.05,63.95,0)" xlink:href="#bc"/><use transform="matrix(0.05,0,0,0.05,69.9,0)" xlink:href="#aX"/><use transform="matrix(0.05,0,0,0.05,74.9,0)" xlink:href="#bl"/><use transform="matrix(0.05,0,0,0.05,84.9,0)" xlink:href="#ba"/><use transform="matrix(0.05,0,0,0.05,89.9,0)" xlink:href="#aZ"/><use transform="matrix(0.05,0,0,0.05,99.9,0)" xlink:href="#bg"/><use transform="matrix(0.05,0,0,0.05,109.9,0)" xlink:href="#aX"/><use transform="matrix(0.05,0,0,0.05,114.9,0)" xlink:href="#aT"/></g><g id="an"><use transform="matrix(0.05,0,0,0.05,0,0)" xlink:href="#aY"/><use transform="matrix(0.05,0,0,0.05,10.5,0)" xlink:href="#bc"/><use transform="matrix(0.05,0,0,0.05,16.45,0)" xlink:href="#aT"/><use transform="matrix(0.05,0,0,0.05,26.450000000000003,0)" xlink:href="#bb"/><use transform="matrix(0.05,0,0,0.05,35.45,0)" xlink:href="#aV"/><use transform="matrix(0.05,0,0,0.05,39.400000000000006,0)" xlink:href="#aZ"/><use transform="matrix(0.05,0,0,0.05,49.400000000000006,0)" xlink:href="#aT"/><use transform="matrix(0.05,0,0,0.05,59.400000000000006,0)" xlink:href="#bd"/><use transform="matrix(0.05,0,0,0.05,69.4,0)" xlink:href="#aU"/><use transform="matrix(0.05,0,0,0.05,78.4,0)" xlink:href="#aT"/><use transform="matrix(0.05,0,0,0.05,88.4,0)" xlink:href="#ba"/></g><g id="ao"><use transform="matrix(0.05,0,0,0.05,0,0)" xlink:href="#bb"/><use transform="matrix(0.05,0,0,0.05,9,0)" xlink:href="#aX"/><use transform="matrix(0.05,0,0,0.05,14,0)" xlink:href="#bc"/><use transform="matrix(0.05,0,0,0.05,19.95,0)" xlink:href="#aV"/><use transform="matrix(0.05,0,0,0.05,23.9,0)" xlink:href="#bd"/><use transform="matrix(0.05,0,0,0.05,33.9,0)" xlink:href="#be"/></g><path d="M143 4C61 4 22-44 18-125c-5-107 100-154 193-111 17 8 29 25 37 43l-32 9c-13-25-37-40-76-40-61 0-88 39-88 99 0 61 29 100 91 101 35 0 62-11 79-27v-45h-74v-28h105v86C228-13 192 4 143 4" id="bG"/><g id="ap"><use transform="matrix(0.05,0,0,0.05,0,0)" xlink:href="#bG"/><use transform="matrix(0.05,0,0,0.05,14,0)" xlink:href="#bc"/><use transform="matrix(0.05,0,0,0.05,19.95,0)" xlink:href="#bf"/><use transform="matrix(0.05,0,0,0.05,29.950000000000003,0)" xlink:href="#bj"/><use transform="matrix(0.05,0,0,0.05,39.95,0)" xlink:href="#aW"/></g><path d="M9 0v-24l116-142H16v-24h144v24L44-24h123V0H9" id="bH"/><g id="aq"><use transform="matrix(0.05,0,0,0.05,0,0)" xlink:href="#bb"/><use transform="matrix(0.05,0,0,0.05,9,0)" xlink:href="#aV"/><use transform="matrix(0.05,0,0,0.05,12.949999999999998,0)" xlink:href="#bH"/><use transform="matrix(0.05,0,0,0.05,21.95,0)" xlink:href="#aT"/><use transform="matrix(0.05,0,0,0.05,31.950000000000003,0)" xlink:href="#ba"/><use transform="matrix(0.05,0,0,0.05,36.95,0)" xlink:href="#aV"/><use transform="matrix(0.05,0,0,0.05,40.900000000000006,0)" xlink:href="#bd"/><use transform="matrix(0.05,0,0,0.05,50.900000000000006,0)" xlink:href="#aX"/></g><g id="ar"><use transform="matrix(0.05,0,0,0.05,0,0)" xlink:href="#bA"/><use transform="matrix(0.05,0,0,0.05,10.3,0)" xlink:href="#bc"/><use transform="matrix(0.05,0,0,0.05,16.25,0)" xlink:href="#bg"/><use transform="matrix(0.05,0,0,0.05,26.25,0)" xlink:href="#bw"/><use transform="matrix(0.05,0,0,0.05,35.25,0)" xlink:href="#aT"/><use transform="matrix(0.05,0,0,0.05,45.25,0)" xlink:href="#bi"/><use transform="matrix(0.05,0,0,0.05,49.2,0)" xlink:href="#bb"/></g><g id="as"><use transform="matrix(0.05,0,0,0.05,0,0)" xlink:href="#bj"/><use transform="matrix(0.05,0,0,0.05,10,0)" xlink:href="#bd"/><use transform="matrix(0.05,0,0,0.05,20,0)" xlink:href="#aZ"/><use transform="matrix(0.05,0,0,0.05,30,0)" xlink:href="#aT"/><use transform="matrix(0.05,0,0,0.05,40,0)" xlink:href="#bc"/><use transform="matrix(0.05,0,0,0.05,45.95,0)" xlink:href="#aX"/><use transform="matrix(0.05,0,0,0.05,50.95,0)" xlink:href="#bg"/><use transform="matrix(0.05,0,0,0.05,60.95,0)" xlink:href="#bC"/><use transform="matrix(0.05,0,0,0.05,69.95,0)" xlink:href="#aT"/><use transform="matrix(0.05,0,0,0.05,79.95,0)" xlink:href="#bb"/></g><g id="at"><use transform="matrix(0.05,0,0,0.05,0,0)" xlink:href="#bv"/><use transform="matrix(0.05,0,0,0.05,12,0)" xlink:href="#aT"/><use transform="matrix(0.05,0,0,0.05,22,0)" xlink:href="#aX"/><use transform="matrix(0.05,0,0,0.05,27,0)" xlink:href="#aX"/><use transform="matrix(0.05,0,0,0.05,32,0)" xlink:href="#bi"/><use transform="matrix(0.05,0,0,0.05,35.95,0)" xlink:href="#aT"/><use transform="matrix(0.05,0,0,0.05,45.95,0)" xlink:href="#bh"/><use transform="matrix(0.05,0,0,0.05,60.900000000000006,0)" xlink:href="#aT"/><use transform="matrix(0.05,0,0,0.05,70.9,0)" xlink:href="#bd"/><use transform="matrix(0.05,0,0,0.05,80.9,0)" xlink:href="#aX"/></g><g id="au"><use transform="matrix(0.05,0,0,0.05,0,0)" xlink:href="#bA"/><use transform="matrix(0.05,0,0,0.05,8.950000000000001,0)" xlink:href="#bf"/><use transform="matrix(0.05,0,0,0.05,18.950000000000003,0)" xlink:href="#aX"/><use transform="matrix(0.05,0,0,0.05,23.950000000000003,0)" xlink:href="#bg"/><use transform="matrix(0.05,0,0,0.05,33.95,0)" xlink:href="#bi"/></g><g id="av"><use transform="matrix(0.05,0,0,0.05,0,0)" xlink:href="#aS"/><use transform="matrix(0.05,0,0,0.05,12.950000000000001,0)" xlink:href="#aT"/><use transform="matrix(0.05,0,0,0.05,22.950000000000003,0)" xlink:href="#bw"/><use transform="matrix(0.05,0,0,0.05,31.950000000000003,0)" xlink:href="#aV"/><use transform="matrix(0.05,0,0,0.05,35.900000000000006,0)" xlink:href="#aT"/><use transform="matrix(0.05,0,0,0.05,45.900000000000006,0)" xlink:href="#bz"/></g><g id="aw"><use transform="matrix(0.05,0,0,0.05,0,0)" xlink:href="#aT"/><use transform="matrix(0.05,0,0,0.05,10,0)" xlink:href="#bw"/><use transform="matrix(0.05,0,0,0.05,19,0)" xlink:href="#bg"/><use transform="matrix(0.05,0,0,0.05,29,0)" xlink:href="#bi"/><use transform="matrix(0.05,0,0,0.05,32.95,0)" xlink:href="#bj"/><use transform="matrix(0.05,0,0,0.05,42.95,0)" xlink:href="#bg"/><use transform="matrix(0.05,0,0,0.05,52.95,0)" xlink:href="#aX"/><use transform="matrix(0.05,0,0,0.05,57.95,0)" xlink:href="#aT"/><use transform="matrix(0.05,0,0,0.05,67.95,0)" xlink:href="#bb"/></g><g id="ax"><use transform="matrix(0.05,0,0,0.05,0,0)" xlink:href="#bs"/><use transform="matrix(0.05,0,0,0.05,10,0)" xlink:href="#bq"/><use transform="matrix(0.05,0,0,0.05,15,0)" xlink:href="#bq"/><use transform="matrix(0.05,0,0,0.05,20,0)" xlink:href="#bp"/></g><use transform="matrix(0.05,0,0,0.05,0,0)" xlink:href="#bp" id="ay"/><g id="az"><use transform="matrix(0.05,0,0,0.05,0,0)" xlink:href="#bv"/><use transform="matrix(0.05,0,0,0.05,12,0)" xlink:href="#aV"/><use transform="matrix(0.05,0,0,0.05,15.949999999999998,0)" xlink:href="#bd"/><use transform="matrix(0.05,0,0,0.05,25.950000000000003,0)" xlink:href="#be"/><use transform="matrix(0.05,0,0,0.05,35.95,0)" xlink:href="#bi"/><use transform="matrix(0.05,0,0,0.05,39.900000000000006,0)" xlink:href="#aT"/></g><g id="aA"><use transform="matrix(0.05,0,0,0.05,0,0)" xlink:href="#bb"/><use transform="matrix(0.05,0,0,0.05,9,0)" xlink:href="#aU"/><use transform="matrix(0.05,0,0,0.05,18,0)" xlink:href="#bf"/><use transform="matrix(0.05,0,0,0.05,28,0)" xlink:href="#bc"/><use transform="matrix(0.05,0,0,0.05,33.95,0)" xlink:href="#aT"/><use transform="matrix(0.05,0,0,0.05,43.95,0)" xlink:href="#ba"/><use transform="matrix(0.05,0,0,0.05,48.95,0)" xlink:href="#aV"/><use transform="matrix(0.05,0,0,0.05,52.900000000000006,0)" xlink:href="#bd"/><use transform="matrix(0.05,0,0,0.05,62.900000000000006,0)" xlink:href="#aX"/></g><g id="aB"><use transform="matrix(0.05,0,0,0.05,0,0)" xlink:href="#aZ"/><use transform="matrix(0.05,0,0,0.05,10,0)" xlink:href="#aT"/><use transform="matrix(0.05,0,0,0.05,20,0)" xlink:href="#bb"/><use transform="matrix(0.05,0,0,0.05,29,0)" xlink:href="#aU"/><use transform="matrix(0.05,0,0,0.05,38,0)" xlink:href="#bc"/><use transform="matrix(0.05,0,0,0.05,43.95,0)" xlink:href="#aV"/><use transform="matrix(0.05,0,0,0.05,47.900000000000006,0)" xlink:href="#aW"/><use transform="matrix(0.05,0,0,0.05,57.900000000000006,0)" xlink:href="#aX"/><use transform="matrix(0.05,0,0,0.05,62.900000000000006,0)" xlink:href="#aV"/><use transform="matrix(0.05,0,0,0.05,66.85000000000001,0)" xlink:href="#bf"/><use transform="matrix(0.05,0,0,0.05,76.85000000000001,0)" xlink:href="#bd"/><use transform="matrix(0.05,0,0,0.05,86.85000000000001,0)" xlink:href="#ba"/><use transform="matrix(0.05,0,0,0.05,91.85000000000001,0)" xlink:href="#bb"/><use transform="matrix(0.05,0,0,0.05,100.85000000000001,0)" xlink:href="#aX"/><use transform="matrix(0.05,0,0,0.05,105.85000000000001,0)" xlink:href="#bc"/><use transform="matrix(0.05,0,0,0.05,111.80000000000001,0)" xlink:href="#aV"/><use transform="matrix(0.05,0,0,0.05,115.75,0)" xlink:href="#bd"/><use transform="matrix(0.05,0,0,0.05,125.75,0)" xlink:href="#be"/></g><g id="aC"><use transform="matrix(0.05,0,0,0.05,0,0)" xlink:href="#aU"/><use transform="matrix(0.05,0,0,0.05,9,0)" xlink:href="#bf"/><use transform="matrix(0.05,0,0,0.05,19,0)" xlink:href="#bd"/><use transform="matrix(0.05,0,0,0.05,29,0)" xlink:href="#aX"/><use transform="matrix(0.05,0,0,0.05,34,0)" xlink:href="#bg"/><use transform="matrix(0.05,0,0,0.05,44,0)" xlink:href="#aV"/><use transform="matrix(0.05,0,0,0.05,47.95,0)" xlink:href="#bd"/><use transform="matrix(0.05,0,0,0.05,57.95,0)" xlink:href="#bb"/></g><g id="aD"><use transform="matrix(0.05,0,0,0.05,0,0)" xlink:href="#bi"/><use transform="matrix(0.05,0,0,0.05,3.95,0)" xlink:href="#aV"/><use transform="matrix(0.05,0,0,0.05,7.9,0)" xlink:href="#bd"/><use transform="matrix(0.05,0,0,0.05,17.9,0)" xlink:href="#bC"/><use transform="matrix(0.05,0,0,0.05,26.899999999999995,0)" xlink:href="#aT"/><use transform="matrix(0.05,0,0,0.05,36.9,0)" xlink:href="#aZ"/></g><g id="aE"><use transform="matrix(0.05,0,0,0.05,0,0)" xlink:href="#aX"/><use transform="matrix(0.05,0,0,0.05,5,0)" xlink:href="#bf"/></g><g id="aF"><use transform="matrix(0.05,0,0,0.05,0,0)" xlink:href="#bt"/><use transform="matrix(0.05,0,0,0.05,14.950000000000001,0)" xlink:href="#bg"/><use transform="matrix(0.05,0,0,0.05,24.950000000000003,0)" xlink:href="#aW"/></g><g id="aG"><use transform="matrix(0.05,0,0,0.05,0,0)" xlink:href="#bw"/><use transform="matrix(0.05,0,0,0.05,9,0)" xlink:href="#aV"/><use transform="matrix(0.05,0,0,0.05,12.949999999999998,0)" xlink:href="#bb"/><use transform="matrix(0.05,0,0,0.05,21.95,0)" xlink:href="#bj"/><use transform="matrix(0.05,0,0,0.05,31.950000000000003,0)" xlink:href="#bg"/><use transform="matrix(0.05,0,0,0.05,41.95,0)" xlink:href="#bi"/><use transform="matrix(0.05,0,0,0.05,45.900000000000006,0)" xlink:href="#aV"/><use transform="matrix(0.05,0,0,0.05,49.85000000000001,0)" xlink:href="#bH"/><use transform="matrix(0.05,0,0,0.05,58.85,0)" xlink:href="#aT"/><use transform="matrix(0.05,0,0,0.05,68.85000000000001,0)" xlink:href="#aZ"/></g><g id="aH"><use transform="matrix(0.05,0,0,0.05,0,0)" xlink:href="#aW"/><use transform="matrix(0.05,0,0,0.05,10,0)" xlink:href="#bi"/><use transform="matrix(0.05,0,0,0.05,13.949999999999998,0)" xlink:href="#bg"/><use transform="matrix(0.05,0,0,0.05,23.95,0)" xlink:href="#bd"/><use transform="matrix(0.05,0,0,0.05,33.95,0)" xlink:href="#bb"/></g><g id="aI"><use transform="matrix(0.05,0,0,0.05,0,0)" xlink:href="#bz"/><use transform="matrix(0.05,0,0,0.05,12.950000000000001,0)" xlink:href="#aV"/><use transform="matrix(0.05,0,0,0.05,16.900000000000002,0)" xlink:href="#aX"/><use transform="matrix(0.05,0,0,0.05,21.900000000000002,0)" xlink:href="#bl"/></g><g id="aJ"><use transform="matrix(0.05,0,0,0.05,0,0)" xlink:href="#bz"/><use transform="matrix(0.05,0,0,0.05,12.950000000000001,0)" xlink:href="#bc"/><use transform="matrix(0.05,0,0,0.05,18.900000000000002,0)" xlink:href="#aV"/><use transform="matrix(0.05,0,0,0.05,22.85,0)" xlink:href="#aX"/><use transform="matrix(0.05,0,0,0.05,27.85,0)" xlink:href="#aT"/><use transform="matrix(0.05,0,0,0.05,37.85,0)" xlink:href="#bb"/></g><g id="aK"><use transform="matrix(0.05,0,0,0.05,0,0)" xlink:href="#bb"/><use transform="matrix(0.05,0,0,0.05,9,0)" xlink:href="#aT"/><use transform="matrix(0.05,0,0,0.05,19,0)" xlink:href="#aX"/><use transform="matrix(0.05,0,0,0.05,24,0)" xlink:href="#aX"/><use transform="matrix(0.05,0,0,0.05,29,0)" xlink:href="#bi"/><use transform="matrix(0.05,0,0,0.05,32.95,0)" xlink:href="#aT"/><use transform="matrix(0.05,0,0,0.05,42.95,0)" xlink:href="#bb"/></g><path d="M33 0v-248h34V0H33" id="bI"/><g id="aL"><use transform="matrix(0.05,0,0,0.05,0,0)" xlink:href="#bI"/><use transform="matrix(0.05,0,0,0.05,5,0)" xlink:href="#bd"/><use transform="matrix(0.05,0,0,0.05,15,0)" xlink:href="#aX"/><use transform="matrix(0.05,0,0,0.05,20,0)" xlink:href="#aT"/><use transform="matrix(0.05,0,0,0.05,30,0)" xlink:href="#bc"/><use transform="matrix(0.05,0,0,0.05,35.95,0)" xlink:href="#aT"/><use transform="matrix(0.05,0,0,0.05,45.95,0)" xlink:href="#bb"/><use transform="matrix(0.05,0,0,0.05,54.95,0)" xlink:href="#aX"/><use transform="matrix(0.05,0,0,0.05,59.95,0)" xlink:href="#aT"/><use transform="matrix(0.05,0,0,0.05,69.95,0)" xlink:href="#aZ"/></g><g id="aM"><use transform="matrix(0.05,0,0,0.05,0,0)" xlink:href="#aW"/><use transform="matrix(0.05,0,0,0.05,10,0)" xlink:href="#bg"/><use transform="matrix(0.05,0,0,0.05,20,0)" xlink:href="#bc"/><use transform="matrix(0.05,0,0,0.05,25.950000000000003,0)" xlink:href="#aX"/><use transform="matrix(0.05,0,0,0.05,30.950000000000003,0)" xlink:href="#aV"/><use transform="matrix(0.05,0,0,0.05,34.9,0)" xlink:href="#aT"/><use transform="matrix(0.05,0,0,0.05,44.9,0)" xlink:href="#bb"/></g><g id="aN"><use transform="matrix(0.05,0,0,0.05,0,0)" xlink:href="#aS"/><use transform="matrix(0.05,0,0,0.05,12.950000000000001,0)" xlink:href="#aT"/><use transform="matrix(0.05,0,0,0.05,22.950000000000003,0)" xlink:href="#aX"/><use transform="matrix(0.05,0,0,0.05,27.950000000000003,0)" xlink:href="#bg"/><use transform="matrix(0.05,0,0,0.05,37.95,0)" xlink:href="#aV"/><use transform="matrix(0.05,0,0,0.05,41.900000000000006,0)" xlink:href="#bi"/></g><g id="aO"><use transform="matrix(0.05,0,0,0.05,0,0)" xlink:href="#bA"/><use transform="matrix(0.05,0,0,0.05,10.3,0)" xlink:href="#bc"/><use transform="matrix(0.05,0,0,0.05,16.25,0)" xlink:href="#bg"/><use transform="matrix(0.05,0,0,0.05,26.25,0)" xlink:href="#bw"/><use transform="matrix(0.05,0,0,0.05,35.25,0)" xlink:href="#aT"/><use transform="matrix(0.05,0,0,0.05,45.25,0)" xlink:href="#bi"/></g><g id="aP"><use transform="matrix(0.05,0,0,0.05,0,0)" xlink:href="#bf"/><use transform="matrix(0.05,0,0,0.05,10,0)" xlink:href="#bc"/><use transform="matrix(0.05,0,0,0.05,15.949999999999998,0)" xlink:href="#be"/><use transform="matrix(0.05,0,0,0.05,25.950000000000003,0)" xlink:href="#bg"/><use transform="matrix(0.05,0,0,0.05,35.95,0)" xlink:href="#bd"/><use transform="matrix(0.05,0,0,0.05,45.95,0)" xlink:href="#aV"/><use transform="matrix(0.05,0,0,0.05,49.900000000000006,0)" xlink:href="#bH"/><use transform="matrix(0.05,0,0,0.05,58.900000000000006,0)" xlink:href="#bg"/><use transform="matrix(0.05,0,0,0.05,68.9,0)" xlink:href="#aX"/><use transform="matrix(0.05,0,0,0.05,73.9,0)" xlink:href="#aV"/><use transform="matrix(0.05,0,0,0.05,77.85000000000001,0)" xlink:href="#bf"/><use transform="matrix(0.05,0,0,0.05,87.85000000000001,0)" xlink:href="#bd"/></g><g id="aQ"><use transform="matrix(0.05,0,0,0.05,0,0)" xlink:href="#be"/><use transform="matrix(0.05,0,0,0.05,10,0)" xlink:href="#bg"/><use transform="matrix(0.05,0,0,0.05,20,0)" xlink:href="#bb"/><use transform="matrix(0.05,0,0,0.05,29,0)" xlink:href="#aX"/><use transform="matrix(0.05,0,0,0.05,34,0)" xlink:href="#bc"/><use transform="matrix(0.05,0,0,0.05,39.95,0)" xlink:href="#bf"/><use transform="matrix(0.05,0,0,0.05,49.95,0)" xlink:href="#bd"/><use transform="matrix(0.05,0,0,0.05,59.95,0)" xlink:href="#bf"/><use transform="matrix(0.05,0,0,0.05,69.95,0)" xlink:href="#bh"/><use transform="matrix(0.05,0,0,0.05,84.9,0)" xlink:href="#bo"/></g><g id="aR"><use transform="matrix(0.05,0,0,0.05,0,0)" xlink:href="#bA"/><use transform="matrix(0.05,0,0,0.05,10.3,0)" xlink:href="#bc"/><use transform="matrix(0.05,0,0,0.05,16.25,0)" xlink:href="#aV"/><use transform="matrix(0.05,0,0,0.05,20.2,0)" xlink:href="#aW"/></g></defs></g></svg>